<svg width="29" height="30" viewBox="0 0 29 30" fill="none" xmlns="http://www.w3.org/2000/svg">
<path d="M5.582 10.2858L14.495 15.4438L23.3474 10.316" stroke="#AA205E" stroke-width="1.5" stroke-linecap="round" stroke-linejoin="round"/>
<path d="M14.4951 24.5889V15.4337" stroke="#AA205E" stroke-width="1.5" stroke-linecap="round" stroke-linejoin="round"/>
<g filter="url(#filter0_d_2002_336)">
<path d="M12.4055 5.27915L7.0153 8.2771C5.79393 8.9534 4.79464 10.6492 4.79464 12.0421V17.7453C4.79464 19.1382 5.79393 20.834 7.0153 21.5103L12.4055 24.5082C13.5562 25.1442 15.4438 25.1442 16.5945 24.5082L21.9847 21.5103C23.2061 20.834 24.2054 19.1382 24.2054 17.7453V12.0421C24.2054 10.6492 23.2061 8.9534 21.9847 8.2771L16.5945 5.27915C15.4337 4.63314 13.5562 4.63314 12.4055 5.27915Z" stroke="#AA205E" stroke-width="1.5" stroke-linecap="round" stroke-linejoin="round" shape-rendering="crispEdges"/>
</g>
<path d="M19.5418 16.1403V12.4459L9.96264 6.91436" stroke="#AA205E" stroke-width="1.5" stroke-linecap="round" stroke-linejoin="round"/>
<defs>
<filter id="filter0_d_2002_336" x="0" y="0" width="29" height="29.7798" filterUnits="userSpaceOnUse" color-interpolation-filters="sRGB">
<feFlood flood-opacity="0" result="BackgroundImageFix"/>
<feColorMatrix in="SourceAlpha" type="matrix" values="0 0 0 0 0 0 0 0 0 0 0 0 0 0 0 0 0 0 127 0" result="hardAlpha"/>
<feOffset/>
<feGaussianBlur stdDeviation="2"/>
<feComposite in2="hardAlpha" operator="out"/>
<feColorMatrix type="matrix" values="0 0 0 0 0.666667 0 0 0 0 0.12549 0 0 0 0 0.368627 0 0 0 1 0"/>
<feBlend mode="normal" in2="BackgroundImageFix" result="effect1_dropShadow_2002_336"/>
<feBlend mode="normal" in="SourceGraphic" in2="effect1_dropShadow_2002_336" result="shape"/>
</filter>
</defs>
</svg>
