<svg width="131" height="58" viewBox="0 0 131 58" fill="none" xmlns="http://www.w3.org/2000/svg">
<g opacity="0.7" filter="url(#filter0_f_2002_213)">
<path d="M17.7297 39.6859L17.7252 39.7139L17.6994 39.7206C17.6412 39.7811 17.5393 39.8371 17.5315 39.9032C17.4632 40.5403 17.3859 41.1774 17.3613 41.8156C17.3243 42.7965 17.8562 43.3933 18.8326 43.5221C18.9782 43.531 19.1248 43.5467 19.2704 43.5467C21.8189 43.5478 24.3684 43.5467 26.9169 43.5467H27.3155C27.1901 44.0752 27.0793 44.55 26.9673 45.0236C26.8755 45.3427 26.7848 45.6618 26.6885 45.9989C26.6067 45.9989 26.534 45.9989 26.4623 45.9989C22.6721 45.9989 18.8807 45.9989 15.0905 45.9966C14.9102 45.9966 14.7266 45.9675 14.5497 45.9306C14.2048 45.8578 13.8633 45.7704 13.5196 45.6887L13.5229 45.6909C13.4221 45.617 13.3214 45.5431 13.2206 45.4692L13.2273 45.4737C13.1769 45.4468 13.1277 45.42 13.0773 45.3931L13.0795 45.3942C12.9317 45.2464 12.7828 45.0975 12.635 44.9497L12.6372 44.9519C12.5622 44.8523 12.4883 44.7537 12.4133 44.6541L12.4155 44.6563C12.3887 44.5522 12.3584 44.4492 12.3349 44.345C12.2151 43.7964 12.0035 43.2432 12.0001 42.6901C11.9956 41.8123 12.1199 40.9322 12.2106 40.0543C12.2532 39.6411 12.3472 39.2324 12.4178 38.8215C12.4357 38.789 12.4581 38.7588 12.4704 38.7241C13.0672 36.9718 14.2283 35.7524 15.9437 35.0626C16.3076 34.916 16.6917 34.8185 17.0657 34.6987C17.396 34.6864 17.7274 34.6629 18.0578 34.6629C43.8548 34.6618 69.6529 34.6629 95.4499 34.6607C101.192 34.6607 106.935 34.6528 112.677 34.6484C112.686 34.6562 112.697 34.6707 112.702 34.6696C112.724 34.664 112.743 34.6528 112.763 34.6439C112.884 34.6159 113.006 34.5879 113.127 34.561C113.236 34.561 113.351 34.5823 113.455 34.561C115.105 34.2072 116.423 33.345 117.393 31.961C117.466 31.8569 117.498 31.7237 117.55 31.605L117.545 31.6095C117.593 31.6296 117.685 31.652 117.684 31.6699C117.671 31.9073 117.667 32.1492 117.619 32.3809C117.468 33.1099 117.302 33.8377 116.9 34.4826C116.877 34.5207 116.893 34.5856 116.892 34.6383L116.895 34.636C116.722 34.8824 116.549 35.1287 116.376 35.375L116.378 35.3728C116.28 35.4736 116.181 35.5732 116.083 35.674L116.087 35.6695C115.963 35.7938 115.838 35.9181 115.713 36.0435L115.718 36.039C115.617 36.1376 115.517 36.235 115.417 36.3335C115.318 36.4074 115.218 36.4813 115.12 36.5563L115.122 36.5552C114.974 36.6538 114.825 36.7523 114.678 36.8508C114.678 36.8508 114.679 36.8508 114.679 36.8497C114.11 37.068 113.54 37.2853 112.971 37.5036C112.902 37.5294 112.833 37.5551 112.764 37.5809C112.517 37.582 112.27 37.5842 112.023 37.5854C111.998 37.5842 111.973 37.582 111.949 37.582C98.0454 37.582 84.1419 37.582 70.2385 37.5854C70.1209 37.5854 70.0045 37.6257 69.8869 37.6469L69.8925 37.6671C69.8421 37.6682 69.7917 37.6704 69.7413 37.6716C69.607 37.6671 69.4715 37.657 69.3371 37.657C53.1428 37.657 36.9484 37.657 20.754 37.657C20.6073 37.657 20.4606 37.6693 20.3128 37.676C19.6321 37.6828 19.0409 37.919 18.5336 38.368C18.5124 38.4039 18.4922 38.4397 18.4709 38.4755L18.4743 38.471C18.3993 38.5461 18.3242 38.6211 18.2492 38.6961L18.2526 38.6916C18.0477 38.9984 17.8428 39.3052 17.6412 39.6143C17.639 39.6187 17.6961 39.6613 17.7252 39.6859H17.7297Z" fill="#C94480"/>
<path d="M75.5056 12.0011C76.454 12.0549 77.4069 12.0661 78.3486 12.1724C79.4201 12.2934 80.4883 12.4692 81.5476 12.6774C83.3066 13.0245 85.0668 13.3795 86.8091 13.8016C88.2905 14.1599 89.7472 14.6201 91.2163 15.0322C93.4736 15.6671 95.6201 16.5975 97.7711 17.5101C99.4394 18.2178 101.084 18.9825 102.755 19.6857C104.04 20.2276 105.331 20.7685 106.654 21.2096C108.125 21.7012 109.623 22.1233 111.131 22.4906C112.06 22.7167 113.024 22.8276 113.979 22.9071C114.977 22.9888 115.983 22.9877 116.986 22.9888C117.414 22.9888 117.841 22.9049 118.3 22.9239C118.012 23.1008 117.727 23.28 117.437 23.4524C116.991 23.7178 116.55 23.9899 116.094 24.2351C115.932 24.3224 115.731 24.3862 115.549 24.3851C114.373 24.375 113.198 24.3448 112.023 24.3168C111.217 24.2978 110.41 24.2698 109.604 24.2474C108.613 24.2205 107.622 24.1959 106.632 24.169C105.876 24.1477 105.119 24.122 104.361 24.1007C103.345 24.0727 102.329 24.0492 101.315 24.0212C100.583 24.0011 99.8493 23.9753 99.117 23.954C98.1148 23.926 97.1116 23.9014 96.1083 23.8745C95.2652 23.851 94.422 23.8264 93.5789 23.8017C92.7234 23.7771 91.868 23.7536 91.0125 23.729C90.1694 23.7055 89.3262 23.6797 88.4842 23.6573C87.4563 23.6293 86.4284 23.6058 85.4016 23.5778C84.6436 23.5565 83.8867 23.5308 83.1286 23.5095C82.1993 23.4826 81.2699 23.4591 80.3405 23.4334C79.4604 23.4087 78.5804 23.3852 77.7003 23.3583C77.6096 23.3561 77.5189 23.3404 77.3285 23.3203C77.4517 23.2564 77.4853 23.224 77.52 23.2229C78.1784 23.196 78.8379 23.1859 79.4952 23.1456C80.5622 23.0807 81.6282 22.9933 82.6953 22.9228C83.1936 22.8892 83.6929 22.8668 84.1923 22.8478C84.9123 22.8198 85.6334 22.813 86.3523 22.7716C87.407 22.71 88.4596 22.6216 89.5143 22.5555C89.8446 22.5354 90.1805 22.5757 90.5097 22.5477C91.494 22.4637 92.4715 22.3528 93.3325 21.7919C94.1376 21.2667 94.5351 19.7305 94.0346 19.0844C93.814 18.8 93.5296 18.4966 93.2071 18.3678C91.3417 17.6221 89.4774 16.8595 87.5694 16.2336C85.9324 15.695 84.2472 15.2886 82.5643 14.9056C81.5353 14.6716 80.4693 14.6078 79.4235 14.4454C77.4315 14.1375 75.4239 14.2014 73.4241 14.2428C72.3783 14.2641 71.328 14.4219 70.2967 14.6056C68.9262 14.8508 67.559 15.1363 66.212 15.4857C64.0152 16.0545 61.9381 16.9514 59.9293 17.9927C57.5298 19.2367 55.2848 20.7248 53.1786 22.42C52.8864 22.6552 52.6053 22.906 52.3019 23.1277C52.1843 23.2139 52.0231 23.2699 51.8775 23.2811C51.4184 23.318 50.956 23.3292 50.4947 23.3494C50.4163 23.3281 50.3368 23.29 50.2584 23.2889C48.5452 23.2867 46.8321 23.2889 45.1189 23.2934C45.0394 23.2934 44.9599 23.3303 44.8793 23.3505C44.4796 23.3292 44.0798 23.2867 43.6812 23.2912C42.8504 23.3012 42.0196 23.3326 41.1888 23.3606C39.8462 23.4065 38.5037 23.4446 37.1623 23.5117C36.1568 23.5621 35.1524 23.6371 34.1503 23.7323C33.1033 23.832 32.0598 23.9585 31.0162 24.0918C29.7509 24.2541 28.4778 24.3885 27.226 24.6259C25.6908 24.917 24.1512 25.2305 22.6531 25.6683C20.9993 26.152 19.3656 26.7287 17.7689 27.377C16.5327 27.8786 15.3671 28.5516 14.1701 29.1484C14.0436 29.2111 13.9171 29.2727 13.7368 29.2861C13.8421 29.1372 13.9339 28.9748 14.0559 28.8427C15.4175 27.3781 17.0142 26.236 18.8091 25.3581C21.034 24.2698 23.3674 23.505 25.7871 22.9933C26.8296 22.7727 27.8687 22.5354 28.9167 22.3472C29.6871 22.2095 30.4686 22.1379 31.2457 22.0393C32.2389 21.9139 33.2321 21.7818 34.2264 21.6698C34.6485 21.6228 35.0774 21.6239 35.5017 21.5937C36.4938 21.5231 37.4859 21.4459 38.4779 21.3731C38.5753 21.3664 38.675 21.372 38.7724 21.3709C40.7095 21.3406 42.6466 21.3104 44.5837 21.279C44.8804 21.279 45.176 21.279 45.4728 21.279C46.7201 21.4392 47.8813 21.0529 49.0424 20.699C51.6648 19.8996 54.1248 18.7283 56.5344 17.4373C58.1165 16.5897 59.7065 15.751 61.3234 14.9728C63.5135 13.9181 65.7989 13.1074 68.1838 12.6158C69.2173 12.4031 70.2732 12.2833 71.3246 12.1702C72.1946 12.0761 73.0714 12.0537 73.9459 12C74.4654 12 74.985 12 75.5045 12L75.5056 12.0011Z" fill="white"/>
<path d="M101.035 43.4056C101.774 43.3866 102.537 42.7271 102.723 41.9142C102.959 40.8907 103.17 39.8617 103.401 38.8372C103.436 38.6827 103.474 38.5293 103.72 38.5315C105.489 38.5438 107.258 38.5382 109.087 38.5382C108.754 39.8416 108.531 41.1539 108.078 42.3822C107.554 43.7975 106.488 44.8288 105.102 45.4491C104.499 45.7189 103.82 45.8186 103.175 45.9966C101.053 45.9921 98.931 45.9854 96.8092 45.9843C95.9022 45.9843 94.9953 45.9944 94.0883 46C92.6002 45.8443 91.4861 45.1837 90.9677 43.7079C90.6418 42.7808 90.7863 41.8627 91.0046 40.9445C91.1726 40.2391 91.3517 39.5359 91.5096 38.8282C91.5522 38.6357 91.6037 38.5338 91.8298 38.5349C93.6706 38.5427 95.5114 38.5394 97.3937 38.5394C97.163 39.5359 96.9301 40.51 96.714 41.4887C96.6088 41.9668 96.4901 42.4438 96.8013 42.9141C97.0074 43.2253 97.2593 43.4011 97.6311 43.4067C97.6579 43.4235 97.6837 43.4403 97.7106 43.456C98.7933 43.456 99.8761 43.456 100.959 43.456L101.038 43.4056H101.035Z" fill="white"/>
<path d="M71.1408 45.9968C69.468 45.8177 68.524 44.9353 68.2128 43.3319C68.0952 42.7273 68.2531 42.1125 68.4098 41.509C68.664 40.5304 68.8667 39.5394 69.0906 38.553H74.7743C74.5391 39.5831 74.3197 40.5953 74.0733 41.6008C73.893 42.3365 74.1797 42.8863 74.9019 43.1169C75.0687 43.1382 75.2356 43.1774 75.4024 43.1785C77.2511 43.1852 79.0997 43.1863 80.9495 43.1886C80.7289 44.1168 80.5083 45.0439 80.2877 45.9722C78.4503 45.9755 76.6128 45.9767 74.7765 45.9811C73.5639 45.9845 72.3523 45.9912 71.1408 45.9957V45.9968Z" fill="white"/>
<path d="M65.9789 38.6167C65.5959 39.405 65.1189 40.1216 64.3799 40.6221C64.1034 40.8091 63.7955 40.9502 63.4607 41.1349C63.5928 41.5739 63.7294 42.0486 63.8794 42.52C64.231 43.6252 64.5904 44.727 64.9432 45.8321C64.9577 45.8769 64.9465 45.9295 64.9465 45.9777C64.7259 45.9788 64.5065 45.9822 64.2859 45.9822C62.6354 45.9878 60.985 45.9934 59.3345 45.9989C58.9493 44.8289 58.5552 43.6621 58.1823 42.4887C57.8151 41.3331 57.468 40.1709 57.1141 39.012C57.0828 38.9089 57.066 38.8026 57.0425 38.6973C57.1421 38.6704 57.2418 38.6223 57.3414 38.6212C60.2202 38.6167 63.099 38.6167 65.9778 38.6167H65.9789Z" fill="white"/>
<path d="M82.45 45.9641C82.6257 45.0661 82.7959 44.167 82.9773 43.2712C83.236 41.9869 83.5025 40.7048 83.7656 39.4216C83.8227 39.1417 83.8832 38.8618 83.9481 38.5583H89.9386C89.5769 40.36 89.2197 42.1582 88.8536 43.9542C88.7158 44.6294 88.5569 45.3012 88.4068 45.9742C86.4216 45.9708 84.4363 45.9675 82.45 45.9641Z" fill="white"/>
<path d="M47.6 38.6188C47.4534 39.2906 47.3134 39.9624 47.1589 40.632C46.8218 42.1022 46.4781 43.5713 46.1355 45.0392C46.0627 45.3516 45.9854 45.6629 45.9093 45.9753C44.0203 45.9731 42.1314 45.9708 40.2424 45.9686C40.4406 45.0739 40.631 44.1759 40.8381 43.2835C41.1718 41.8447 41.5167 40.4092 41.8571 38.9715C41.885 38.8551 41.9209 38.7397 41.9534 38.6244C43.8356 38.6222 45.7167 38.6199 47.5989 38.6177L47.6 38.6188Z" fill="white"/>
<path d="M35.9394 38.621C35.6281 39.9255 35.3135 41.2288 35.0067 42.5344C34.767 43.5533 34.5397 44.5745 34.3046 45.5934C34.2733 45.73 34.2285 45.8633 34.1904 45.9976C34.0437 45.9932 33.8981 45.9831 33.7515 45.9831C32.1021 45.9797 30.4528 45.9775 28.8035 45.9741C28.9255 45.3807 29.0341 44.7839 29.1719 44.1938C29.5828 42.437 30.0049 40.6835 30.4226 38.9289C30.4472 38.8248 30.4808 38.7229 30.5099 38.6199C32.3194 38.6199 34.1288 38.6199 35.9394 38.6199V38.621Z" fill="white"/>
<path d="M54.9779 38.6188C54.7763 39.5202 54.5792 40.4227 54.371 41.3229C54.0407 42.7472 53.7025 44.1693 53.3688 45.5924C53.3386 45.7189 53.3129 45.8466 53.286 45.9731C53.1012 45.9765 52.9176 45.9809 52.7328 45.9821C51.1227 45.9865 49.5114 45.9899 47.9013 45.9944L47.8923 45.9899C47.8923 45.9362 47.8923 45.8824 47.8935 45.8298C48.104 44.8982 48.31 43.9666 48.525 43.0361C48.8575 41.5984 49.1957 40.1618 49.5327 38.7252C49.5428 38.6827 49.5697 38.6435 49.5887 38.6021C51.3847 38.6076 53.1818 38.6132 54.9779 38.6188Z" fill="white"/>
<path d="M112.025 37.5844C111.775 37.6079 111.525 37.6527 111.275 37.6527C98.8681 37.6561 86.4629 37.6561 74.0565 37.655C72.6669 37.655 71.2785 37.6482 69.8889 37.646C70.0065 37.6247 70.1229 37.5844 70.2405 37.5844C84.1439 37.5811 98.0474 37.5811 111.951 37.5811C111.975 37.5811 112 37.5833 112.025 37.5844Z" fill="#009CCC"/>
<path d="M112.678 34.6507C112.707 34.6496 112.735 34.6474 112.764 34.6462C112.744 34.6552 112.725 34.6664 112.703 34.672C112.697 34.6731 112.686 34.6586 112.678 34.6507Z" fill="#457488"/>
<path d="M37.3569 26.1789C40.4798 26.18 43.6026 26.1811 46.7255 26.1823C46.7748 26.18 46.8252 26.1778 46.8744 26.1755C48.4073 26.2841 49.7028 27.5573 49.6905 29.1036C49.6827 30.0475 49.3848 30.9175 49.2023 31.8189C49.0724 32.4605 48.9201 33.0976 48.7779 33.7369C46.8901 33.7403 45.0012 33.7425 43.1133 33.7459C43.2757 33.0013 43.4481 32.2589 43.597 31.5121C43.6978 31.0093 43.7986 30.5021 43.8389 29.9915C43.8803 29.4697 43.466 29.0498 42.9263 29.042C41.7484 29.0263 40.5705 29.0274 39.3925 29.042C38.8047 29.0487 38.0187 29.7441 37.872 30.3476C37.5976 31.4785 37.3267 32.6116 37.0535 33.7425C35.2619 33.7425 33.4693 33.7448 31.6777 33.7459C31.7751 33.2543 31.8614 32.7606 31.9733 32.2712C32.1626 31.4471 32.3048 30.604 32.5791 29.8079C33.2173 27.9548 34.5823 26.8373 36.4219 26.2629C36.6235 26.2002 36.8463 26.2035 37.0591 26.1767L37.3558 26.1789H37.3569Z" fill="white"/>
<path d="M66.0573 26.1789C67.0292 26.3143 67.8119 26.7689 68.3337 27.6042C68.7256 28.2313 68.8913 28.9154 68.7256 29.6634C68.4423 30.9421 68.1747 32.2242 67.8981 33.5051C67.8802 33.5857 67.8455 33.663 67.8198 33.7425C66.0338 33.7447 64.249 33.7503 62.4631 33.7436C62.3757 33.7436 62.2884 33.6462 62.2011 33.5936C62.4418 32.5366 62.6713 31.4762 62.9255 30.4226C63.1024 29.6858 62.6377 29.0419 61.8831 29.0364C60.8272 29.0285 59.7713 29.0319 58.7165 29.0352C57.935 29.0375 57.1903 29.5447 56.9832 30.3083C56.6753 31.4437 56.4312 32.5948 56.1602 33.7403C54.3474 33.7403 52.5357 33.7391 50.7229 33.738C50.9547 32.7068 51.1921 31.6777 51.4149 30.6454C51.5795 29.884 51.8258 29.164 52.2916 28.5258C53.1706 27.321 54.297 26.5013 55.7896 26.2337C55.868 26.2192 55.9452 26.1979 56.0236 26.18C56.0975 26.1822 56.1714 26.1833 56.2453 26.1856C56.8701 26.18 57.4938 26.1677 58.1186 26.1688C60.6424 26.1699 63.1651 26.1755 65.6889 26.18C65.8121 26.18 65.9353 26.18 66.0596 26.18L66.0573 26.1789Z" fill="white"/>
<path d="M107.965 26.18C109.256 26.3782 110.232 27.0064 110.762 28.2347C111.102 29.0241 111.05 29.8393 110.876 30.651C110.654 31.6845 110.409 32.7136 110.174 33.7448C108.424 33.747 106.674 33.7504 104.924 33.7437C104.824 33.7437 104.724 33.6452 104.625 33.5925C104.844 32.6049 105.069 31.6185 105.281 30.6287C105.443 29.8672 105.144 29.2525 104.355 29.1002C104.273 29.079 104.191 29.0398 104.11 29.0387C103.102 29.0342 102.095 29.0342 101.088 29.0387C100.994 29.0387 100.899 29.0801 100.804 29.1025C100.056 29.2469 99.492 29.6892 99.2815 30.3857C98.9579 31.4606 98.7642 32.5758 98.5156 33.6731C98.4495 33.6978 98.3835 33.7448 98.3174 33.7448C96.5348 33.7493 94.7534 33.7504 92.9708 33.7426C92.8947 33.7426 92.8196 33.644 92.7446 33.5925C93.0884 32.2018 93.2082 30.7451 93.8655 29.4451C94.7097 27.7779 96.1026 26.7668 97.8807 26.2629C98.108 26.198 98.3544 26.2024 98.5918 26.1744C98.5985 26.1845 98.6074 26.2024 98.6119 26.2013C98.6309 26.198 98.6489 26.1879 98.6679 26.1812C101.104 26.1767 103.542 26.17 105.978 26.1677C106.566 26.1677 107.153 26.1789 107.741 26.1845C107.815 26.1823 107.889 26.1812 107.963 26.1789L107.965 26.18Z" fill="white"/>
<path d="M98.6689 26.1823C98.6499 26.189 98.632 26.1991 98.6129 26.2024C98.6085 26.2024 98.5995 26.1845 98.5928 26.1755C98.6185 26.1778 98.6432 26.18 98.6689 26.1823Z" fill="#D2D4D6"/>
<path d="M86.5694 26.1835C88.511 26.1812 90.4526 26.179 92.3942 26.1768C92.4154 26.1958 92.4356 26.2159 92.4569 26.235C92.3023 27.0165 92.1512 27.7981 91.9933 28.5797C91.7358 29.8528 91.4749 31.1248 91.214 32.3967C91.1211 32.8514 91.0214 33.3048 90.9251 33.7594C90.3485 33.7561 89.7718 33.7538 89.1951 33.7505C87.7843 33.7438 86.3735 33.737 84.9626 33.7303C85.1429 32.8234 85.3221 31.9164 85.5035 31.0105C85.7599 29.7285 86.0129 28.4453 86.275 27.1643C86.3388 26.8519 86.4328 26.5451 86.5123 26.2361C86.5314 26.2182 86.5493 26.2014 86.5683 26.1835H86.5694Z" fill="white"/>
<path d="M77.6274 26.236C77.4471 27.0444 77.268 27.8528 77.0843 28.6613C76.7003 30.3531 76.3128 32.0439 75.9265 33.7347C74.0387 33.7391 72.1509 33.7425 70.2642 33.747C70.4131 33.0248 70.5497 32.3003 70.7143 31.5826C71.0972 29.9142 71.4947 28.2492 71.8866 26.5831C71.9135 26.4677 71.9426 26.3513 71.9706 26.236C71.9919 26.2169 72.0132 26.1968 72.0333 26.1777C73.8764 26.1777 75.7205 26.1777 77.5636 26.1777C77.5848 26.1968 77.605 26.2169 77.6263 26.236H77.6274Z" fill="white"/>
<path d="M72.0344 26.1768C72.0131 26.1958 71.9918 26.2159 71.9717 26.235C71.993 26.2159 72.0142 26.1958 72.0344 26.1768Z" fill="#D2D4D6"/>
<path d="M21.6968 22.7302L23.2386 19.5077C23.3092 19.361 23.4603 19.2714 23.6227 19.2804L44.0451 20.9387C44.0451 20.9387 30.7295 19.9858 22.1984 23.2778C21.8614 23.4077 21.54 23.0549 21.6956 22.7291L21.6968 22.7302Z" fill="#C94480"/>
</g>
<path d="M17.7297 39.6859L17.7252 39.7139L17.6994 39.7206C17.6412 39.7811 17.5393 39.8371 17.5315 39.9032C17.4632 40.5403 17.3859 41.1774 17.3613 41.8156C17.3243 42.7965 17.8562 43.3933 18.8326 43.5221C18.9782 43.531 19.1248 43.5467 19.2704 43.5467C21.8189 43.5478 24.3684 43.5467 26.9169 43.5467H27.3155C27.1901 44.0752 27.0793 44.55 26.9673 45.0236C26.8755 45.3427 26.7848 45.6618 26.6885 45.9989C26.6067 45.9989 26.534 45.9989 26.4623 45.9989C22.6721 45.9989 18.8807 45.9989 15.0905 45.9966C14.9102 45.9966 14.7266 45.9675 14.5497 45.9306C14.2048 45.8578 13.8633 45.7704 13.5196 45.6887L13.5229 45.6909C13.4221 45.617 13.3214 45.5431 13.2206 45.4692L13.2273 45.4737C13.1769 45.4468 13.1277 45.42 13.0773 45.3931L13.0795 45.3942C12.9317 45.2464 12.7828 45.0975 12.635 44.9497L12.6372 44.9519C12.5622 44.8523 12.4883 44.7537 12.4133 44.6541L12.4155 44.6563C12.3887 44.5522 12.3584 44.4492 12.3349 44.345C12.2151 43.7964 12.0035 43.2432 12.0001 42.6901C11.9956 41.8123 12.1199 40.9322 12.2106 40.0543C12.2532 39.6411 12.3472 39.2324 12.4178 38.8215C12.4357 38.789 12.4581 38.7588 12.4704 38.7241C13.0672 36.9718 14.2283 35.7524 15.9437 35.0626C16.3076 34.916 16.6917 34.8185 17.0657 34.6987C17.396 34.6864 17.7274 34.6629 18.0578 34.6629C43.8548 34.6618 69.6529 34.6629 95.4499 34.6607C101.192 34.6607 106.935 34.6528 112.677 34.6484C112.686 34.6562 112.697 34.6707 112.702 34.6696C112.724 34.664 112.743 34.6528 112.763 34.6439C112.884 34.6159 113.006 34.5879 113.127 34.561C113.236 34.561 113.351 34.5823 113.455 34.561C115.105 34.2072 116.423 33.345 117.393 31.961C117.466 31.8569 117.498 31.7237 117.55 31.605L117.545 31.6095C117.593 31.6296 117.685 31.652 117.684 31.6699C117.671 31.9073 117.667 32.1492 117.619 32.3809C117.468 33.1099 117.302 33.8377 116.9 34.4826C116.877 34.5207 116.893 34.5856 116.892 34.6383L116.895 34.636C116.722 34.8824 116.549 35.1287 116.376 35.375L116.378 35.3728C116.28 35.4736 116.181 35.5732 116.083 35.674L116.087 35.6695C115.963 35.7938 115.838 35.9181 115.713 36.0435L115.718 36.039C115.617 36.1376 115.517 36.235 115.417 36.3335C115.318 36.4074 115.218 36.4813 115.12 36.5563L115.122 36.5552C114.974 36.6538 114.825 36.7523 114.678 36.8508C114.678 36.8508 114.679 36.8508 114.679 36.8497C114.11 37.068 113.54 37.2853 112.971 37.5036C112.902 37.5294 112.833 37.5551 112.764 37.5809C112.517 37.582 112.27 37.5842 112.023 37.5854C111.998 37.5842 111.973 37.582 111.949 37.582C98.0454 37.582 84.1419 37.582 70.2385 37.5854C70.1209 37.5854 70.0045 37.6257 69.8869 37.6469L69.8925 37.6671C69.8421 37.6682 69.7917 37.6704 69.7413 37.6716C69.607 37.6671 69.4715 37.657 69.3371 37.657C53.1428 37.657 36.9484 37.657 20.754 37.657C20.6073 37.657 20.4606 37.6693 20.3128 37.676C19.6321 37.6828 19.0409 37.919 18.5336 38.368C18.5124 38.4039 18.4922 38.4397 18.4709 38.4755L18.4743 38.471C18.3993 38.5461 18.3242 38.6211 18.2492 38.6961L18.2526 38.6916C18.0477 38.9984 17.8428 39.3052 17.6412 39.6143C17.639 39.6187 17.6961 39.6613 17.7252 39.6859H17.7297Z" fill="#C94480"/>
<path d="M75.5056 12.0011C76.454 12.0549 77.4069 12.0661 78.3486 12.1724C79.4201 12.2934 80.4883 12.4692 81.5476 12.6774C83.3066 13.0245 85.0668 13.3795 86.8091 13.8016C88.2905 14.1599 89.7472 14.6201 91.2163 15.0322C93.4736 15.6671 95.6201 16.5975 97.7711 17.5101C99.4394 18.2178 101.084 18.9825 102.755 19.6857C104.04 20.2276 105.331 20.7685 106.654 21.2096C108.125 21.7012 109.623 22.1233 111.131 22.4906C112.06 22.7167 113.024 22.8276 113.979 22.9071C114.977 22.9888 115.983 22.9877 116.986 22.9888C117.414 22.9888 117.841 22.9049 118.3 22.9239C118.012 23.1008 117.727 23.28 117.437 23.4524C116.991 23.7178 116.55 23.9899 116.094 24.2351C115.932 24.3224 115.731 24.3862 115.549 24.3851C114.373 24.375 113.198 24.3448 112.023 24.3168C111.217 24.2978 110.41 24.2698 109.604 24.2474C108.613 24.2205 107.622 24.1959 106.632 24.169C105.876 24.1477 105.119 24.122 104.361 24.1007C103.345 24.0727 102.329 24.0492 101.315 24.0212C100.583 24.0011 99.8493 23.9753 99.117 23.954C98.1148 23.926 97.1116 23.9014 96.1083 23.8745C95.2652 23.851 94.422 23.8264 93.5789 23.8017C92.7234 23.7771 91.868 23.7536 91.0125 23.729C90.1694 23.7055 89.3262 23.6797 88.4842 23.6573C87.4563 23.6293 86.4284 23.6058 85.4016 23.5778C84.6436 23.5565 83.8867 23.5308 83.1286 23.5095C82.1993 23.4826 81.2699 23.4591 80.3405 23.4334C79.4604 23.4087 78.5804 23.3852 77.7003 23.3583C77.6096 23.3561 77.5189 23.3404 77.3285 23.3203C77.4517 23.2564 77.4853 23.224 77.52 23.2229C78.1784 23.196 78.8379 23.1859 79.4952 23.1456C80.5622 23.0807 81.6282 22.9933 82.6953 22.9228C83.1936 22.8892 83.6929 22.8668 84.1923 22.8478C84.9123 22.8198 85.6334 22.813 86.3523 22.7716C87.407 22.71 88.4596 22.6216 89.5143 22.5555C89.8446 22.5354 90.1805 22.5757 90.5097 22.5477C91.494 22.4637 92.4715 22.3528 93.3325 21.7919C94.1376 21.2667 94.5351 19.7305 94.0346 19.0844C93.814 18.8 93.5296 18.4966 93.2071 18.3678C91.3417 17.6221 89.4774 16.8595 87.5694 16.2336C85.9324 15.695 84.2472 15.2886 82.5643 14.9056C81.5353 14.6716 80.4693 14.6078 79.4235 14.4454C77.4315 14.1375 75.4239 14.2014 73.4241 14.2428C72.3783 14.2641 71.328 14.4219 70.2967 14.6056C68.9262 14.8508 67.559 15.1363 66.212 15.4857C64.0152 16.0545 61.9381 16.9514 59.9293 17.9927C57.5298 19.2367 55.2848 20.7248 53.1786 22.42C52.8864 22.6552 52.6053 22.906 52.3019 23.1277C52.1843 23.2139 52.0231 23.2699 51.8775 23.2811C51.4184 23.318 50.956 23.3292 50.4947 23.3494C50.4163 23.3281 50.3368 23.29 50.2584 23.2889C48.5452 23.2867 46.8321 23.2889 45.1189 23.2934C45.0394 23.2934 44.9599 23.3303 44.8793 23.3505C44.4796 23.3292 44.0798 23.2867 43.6812 23.2912C42.8504 23.3012 42.0196 23.3326 41.1888 23.3606C39.8462 23.4065 38.5037 23.4446 37.1623 23.5117C36.1568 23.5621 35.1524 23.6371 34.1503 23.7323C33.1033 23.832 32.0598 23.9585 31.0162 24.0918C29.7509 24.2541 28.4778 24.3885 27.226 24.6259C25.6908 24.917 24.1512 25.2305 22.6531 25.6683C20.9993 26.152 19.3656 26.7287 17.7689 27.377C16.5327 27.8786 15.3671 28.5516 14.1701 29.1484C14.0436 29.2111 13.9171 29.2727 13.7368 29.2861C13.8421 29.1372 13.9339 28.9748 14.0559 28.8427C15.4175 27.3781 17.0142 26.236 18.8091 25.3581C21.034 24.2698 23.3674 23.505 25.7871 22.9933C26.8296 22.7727 27.8687 22.5354 28.9167 22.3472C29.6871 22.2095 30.4686 22.1379 31.2457 22.0393C32.2389 21.9139 33.2321 21.7818 34.2264 21.6698C34.6485 21.6228 35.0774 21.6239 35.5017 21.5937C36.4938 21.5231 37.4859 21.4459 38.4779 21.3731C38.5753 21.3664 38.675 21.372 38.7724 21.3709C40.7095 21.3406 42.6466 21.3104 44.5837 21.279C44.8804 21.279 45.176 21.279 45.4728 21.279C46.7201 21.4392 47.8813 21.0529 49.0424 20.699C51.6648 19.8996 54.1248 18.7283 56.5344 17.4373C58.1165 16.5897 59.7065 15.751 61.3234 14.9728C63.5135 13.9181 65.7989 13.1074 68.1838 12.6158C69.2173 12.4031 70.2732 12.2833 71.3246 12.1702C72.1946 12.0761 73.0714 12.0537 73.9459 12C74.4654 12 74.985 12 75.5045 12L75.5056 12.0011Z" fill="white"/>
<path d="M101.035 43.4056C101.774 43.3866 102.537 42.7271 102.723 41.9142C102.959 40.8907 103.17 39.8617 103.401 38.8372C103.436 38.6827 103.474 38.5293 103.72 38.5315C105.489 38.5438 107.258 38.5382 109.087 38.5382C108.754 39.8416 108.531 41.1539 108.078 42.3822C107.554 43.7975 106.488 44.8288 105.102 45.4491C104.499 45.7189 103.82 45.8186 103.175 45.9966C101.053 45.9921 98.931 45.9854 96.8092 45.9843C95.9022 45.9843 94.9953 45.9944 94.0883 46C92.6002 45.8443 91.4861 45.1837 90.9677 43.7079C90.6418 42.7808 90.7863 41.8627 91.0046 40.9445C91.1726 40.2391 91.3517 39.5359 91.5096 38.8282C91.5522 38.6357 91.6037 38.5338 91.8298 38.5349C93.6706 38.5427 95.5114 38.5394 97.3937 38.5394C97.163 39.5359 96.9301 40.51 96.714 41.4887C96.6088 41.9668 96.4901 42.4438 96.8013 42.9141C97.0074 43.2253 97.2593 43.4011 97.6311 43.4067C97.6579 43.4235 97.6837 43.4403 97.7106 43.456C98.7933 43.456 99.8761 43.456 100.959 43.456L101.038 43.4056H101.035Z" fill="white"/>
<path d="M71.1408 45.9968C69.468 45.8177 68.524 44.9353 68.2128 43.3319C68.0952 42.7273 68.2531 42.1125 68.4098 41.509C68.664 40.5304 68.8667 39.5394 69.0906 38.553H74.7743C74.5391 39.5831 74.3197 40.5953 74.0733 41.6008C73.893 42.3365 74.1797 42.8863 74.9019 43.1169C75.0687 43.1382 75.2356 43.1774 75.4024 43.1785C77.2511 43.1852 79.0997 43.1863 80.9495 43.1886C80.7289 44.1168 80.5083 45.0439 80.2877 45.9722C78.4503 45.9755 76.6128 45.9767 74.7765 45.9811C73.5639 45.9845 72.3523 45.9912 71.1408 45.9957V45.9968Z" fill="white"/>
<path d="M65.9789 38.6167C65.5959 39.405 65.1189 40.1216 64.3799 40.6221C64.1034 40.8091 63.7955 40.9502 63.4607 41.1349C63.5928 41.5739 63.7294 42.0486 63.8794 42.52C64.231 43.6252 64.5904 44.727 64.9432 45.8321C64.9577 45.8769 64.9465 45.9295 64.9465 45.9777C64.7259 45.9788 64.5065 45.9822 64.2859 45.9822C62.6354 45.9878 60.985 45.9934 59.3345 45.9989C58.9493 44.8289 58.5552 43.6621 58.1823 42.4887C57.8151 41.3331 57.468 40.1709 57.1141 39.012C57.0828 38.9089 57.066 38.8026 57.0425 38.6973C57.1421 38.6704 57.2418 38.6223 57.3414 38.6212C60.2202 38.6167 63.099 38.6167 65.9778 38.6167H65.9789Z" fill="white"/>
<path d="M82.45 45.9641C82.6257 45.0661 82.7959 44.167 82.9773 43.2712C83.236 41.9869 83.5025 40.7048 83.7656 39.4216C83.8227 39.1417 83.8832 38.8618 83.9481 38.5583H89.9386C89.5769 40.36 89.2197 42.1582 88.8536 43.9542C88.7158 44.6294 88.5569 45.3012 88.4068 45.9742C86.4216 45.9708 84.4363 45.9675 82.45 45.9641Z" fill="white"/>
<path d="M47.6 38.6188C47.4534 39.2906 47.3134 39.9624 47.1589 40.632C46.8218 42.1022 46.4781 43.5713 46.1355 45.0392C46.0627 45.3516 45.9854 45.6629 45.9093 45.9753C44.0203 45.9731 42.1314 45.9708 40.2424 45.9686C40.4406 45.0739 40.631 44.1759 40.8381 43.2835C41.1718 41.8447 41.5167 40.4092 41.8571 38.9715C41.885 38.8551 41.9209 38.7397 41.9534 38.6244C43.8356 38.6222 45.7167 38.6199 47.5989 38.6177L47.6 38.6188Z" fill="white"/>
<path d="M35.9394 38.621C35.6281 39.9255 35.3135 41.2288 35.0067 42.5344C34.767 43.5533 34.5397 44.5745 34.3046 45.5934C34.2733 45.73 34.2285 45.8633 34.1904 45.9976C34.0437 45.9932 33.8981 45.9831 33.7515 45.9831C32.1021 45.9797 30.4528 45.9775 28.8035 45.9741C28.9255 45.3807 29.0341 44.7839 29.1719 44.1938C29.5828 42.437 30.0049 40.6835 30.4226 38.9289C30.4472 38.8248 30.4808 38.7229 30.5099 38.6199C32.3194 38.6199 34.1288 38.6199 35.9394 38.6199V38.621Z" fill="white"/>
<path d="M54.9779 38.6188C54.7763 39.5202 54.5792 40.4227 54.371 41.3229C54.0407 42.7472 53.7025 44.1693 53.3688 45.5924C53.3386 45.7189 53.3129 45.8466 53.286 45.9731C53.1012 45.9765 52.9176 45.9809 52.7328 45.9821C51.1227 45.9865 49.5114 45.9899 47.9013 45.9944L47.8923 45.9899C47.8923 45.9362 47.8923 45.8824 47.8935 45.8298C48.104 44.8982 48.31 43.9666 48.525 43.0361C48.8575 41.5984 49.1957 40.1618 49.5327 38.7252C49.5428 38.6827 49.5697 38.6435 49.5887 38.6021C51.3847 38.6076 53.1818 38.6132 54.9779 38.6188Z" fill="white"/>
<path d="M112.025 37.5844C111.775 37.6079 111.525 37.6527 111.275 37.6527C98.8681 37.6561 86.4629 37.6561 74.0565 37.655C72.6669 37.655 71.2785 37.6482 69.8889 37.646C70.0065 37.6247 70.1229 37.5844 70.2405 37.5844C84.1439 37.5811 98.0474 37.5811 111.951 37.5811C111.975 37.5811 112 37.5833 112.025 37.5844Z" fill="#009CCC"/>
<path d="M112.678 34.6507C112.707 34.6496 112.735 34.6474 112.764 34.6462C112.744 34.6552 112.725 34.6664 112.703 34.672C112.697 34.6731 112.686 34.6586 112.678 34.6507Z" fill="#457488"/>
<path d="M37.3569 26.1789C40.4798 26.18 43.6026 26.1811 46.7255 26.1823C46.7748 26.18 46.8252 26.1778 46.8744 26.1755C48.4073 26.2841 49.7028 27.5573 49.6905 29.1036C49.6827 30.0475 49.3848 30.9175 49.2023 31.8189C49.0724 32.4605 48.9201 33.0976 48.7779 33.7369C46.8901 33.7403 45.0012 33.7425 43.1133 33.7459C43.2757 33.0013 43.4481 32.2589 43.597 31.5121C43.6978 31.0093 43.7986 30.5021 43.8389 29.9915C43.8803 29.4697 43.466 29.0498 42.9263 29.042C41.7484 29.0263 40.5705 29.0274 39.3925 29.042C38.8047 29.0487 38.0187 29.7441 37.872 30.3476C37.5976 31.4785 37.3267 32.6116 37.0535 33.7425C35.2619 33.7425 33.4693 33.7448 31.6777 33.7459C31.7751 33.2543 31.8614 32.7606 31.9733 32.2712C32.1626 31.4471 32.3048 30.604 32.5791 29.8079C33.2173 27.9548 34.5823 26.8373 36.4219 26.2629C36.6235 26.2002 36.8463 26.2035 37.0591 26.1767L37.3558 26.1789H37.3569Z" fill="white"/>
<path d="M66.0573 26.1789C67.0292 26.3143 67.8119 26.7689 68.3337 27.6042C68.7256 28.2313 68.8913 28.9154 68.7256 29.6634C68.4423 30.9421 68.1747 32.2242 67.8981 33.5051C67.8802 33.5857 67.8455 33.663 67.8198 33.7425C66.0338 33.7447 64.249 33.7503 62.4631 33.7436C62.3757 33.7436 62.2884 33.6462 62.2011 33.5936C62.4418 32.5366 62.6713 31.4762 62.9255 30.4226C63.1024 29.6858 62.6377 29.0419 61.8831 29.0364C60.8272 29.0285 59.7713 29.0319 58.7165 29.0352C57.935 29.0375 57.1903 29.5447 56.9832 30.3083C56.6753 31.4437 56.4312 32.5948 56.1602 33.7403C54.3474 33.7403 52.5357 33.7391 50.7229 33.738C50.9547 32.7068 51.1921 31.6777 51.4149 30.6454C51.5795 29.884 51.8258 29.164 52.2916 28.5258C53.1706 27.321 54.297 26.5013 55.7896 26.2337C55.868 26.2192 55.9452 26.1979 56.0236 26.18C56.0975 26.1822 56.1714 26.1833 56.2453 26.1856C56.8701 26.18 57.4938 26.1677 58.1186 26.1688C60.6424 26.1699 63.1651 26.1755 65.6889 26.18C65.8121 26.18 65.9353 26.18 66.0596 26.18L66.0573 26.1789Z" fill="white"/>
<path d="M107.965 26.18C109.256 26.3782 110.232 27.0064 110.762 28.2347C111.102 29.0241 111.05 29.8393 110.876 30.651C110.654 31.6845 110.409 32.7136 110.174 33.7448C108.424 33.747 106.674 33.7504 104.924 33.7437C104.824 33.7437 104.724 33.6452 104.625 33.5925C104.844 32.6049 105.069 31.6185 105.281 30.6287C105.443 29.8672 105.144 29.2525 104.355 29.1002C104.273 29.079 104.191 29.0398 104.11 29.0387C103.102 29.0342 102.095 29.0342 101.088 29.0387C100.994 29.0387 100.899 29.0801 100.804 29.1025C100.056 29.2469 99.492 29.6892 99.2815 30.3857C98.9579 31.4606 98.7642 32.5758 98.5156 33.6731C98.4495 33.6978 98.3835 33.7448 98.3174 33.7448C96.5348 33.7493 94.7534 33.7504 92.9708 33.7426C92.8947 33.7426 92.8196 33.644 92.7446 33.5925C93.0884 32.2018 93.2082 30.7451 93.8655 29.4451C94.7097 27.7779 96.1026 26.7668 97.8807 26.2629C98.108 26.198 98.3544 26.2024 98.5918 26.1744C98.5985 26.1845 98.6074 26.2024 98.6119 26.2013C98.6309 26.198 98.6489 26.1879 98.6679 26.1812C101.104 26.1767 103.542 26.17 105.978 26.1677C106.566 26.1677 107.153 26.1789 107.741 26.1845C107.815 26.1823 107.889 26.1812 107.963 26.1789L107.965 26.18Z" fill="white"/>
<path d="M98.6689 26.1823C98.6499 26.189 98.632 26.1991 98.6129 26.2024C98.6085 26.2024 98.5995 26.1845 98.5928 26.1755C98.6185 26.1778 98.6432 26.18 98.6689 26.1823Z" fill="#D2D4D6"/>
<path d="M86.5694 26.1835C88.511 26.1812 90.4526 26.179 92.3942 26.1768C92.4154 26.1958 92.4356 26.2159 92.4569 26.235C92.3023 27.0165 92.1512 27.7981 91.9933 28.5797C91.7358 29.8528 91.4749 31.1248 91.214 32.3967C91.1211 32.8514 91.0214 33.3048 90.9251 33.7594C90.3485 33.7561 89.7718 33.7538 89.1951 33.7505C87.7843 33.7438 86.3735 33.737 84.9626 33.7303C85.1429 32.8234 85.3221 31.9164 85.5035 31.0105C85.7599 29.7285 86.0129 28.4453 86.275 27.1643C86.3388 26.8519 86.4328 26.5451 86.5123 26.2361C86.5314 26.2182 86.5493 26.2014 86.5683 26.1835H86.5694Z" fill="white"/>
<path d="M77.6274 26.236C77.4471 27.0444 77.268 27.8528 77.0843 28.6613C76.7003 30.3531 76.3128 32.0439 75.9265 33.7347C74.0387 33.7391 72.1509 33.7425 70.2642 33.747C70.4131 33.0248 70.5497 32.3003 70.7143 31.5826C71.0972 29.9142 71.4947 28.2492 71.8866 26.5831C71.9135 26.4677 71.9426 26.3513 71.9706 26.236C71.9919 26.2169 72.0132 26.1968 72.0333 26.1777C73.8764 26.1777 75.7205 26.1777 77.5636 26.1777C77.5848 26.1968 77.605 26.2169 77.6263 26.236H77.6274Z" fill="white"/>
<path d="M72.0344 26.1768C72.0131 26.1958 71.9918 26.2159 71.9717 26.235C71.993 26.2159 72.0142 26.1958 72.0344 26.1768Z" fill="#D2D4D6"/>
<path d="M21.6968 22.7302L23.2386 19.5077C23.3092 19.361 23.4603 19.2714 23.6227 19.2804L44.0451 20.9387C44.0451 20.9387 30.7295 19.9858 22.1984 23.2778C21.8614 23.4077 21.54 23.0549 21.6956 22.7291L21.6968 22.7302Z" fill="#C94480"/>
<defs>
<filter id="filter0_f_2002_213" x="0" y="0" width="130.3" height="58" filterUnits="userSpaceOnUse" color-interpolation-filters="sRGB">
<feFlood flood-opacity="0" result="BackgroundImageFix"/>
<feBlend mode="normal" in="SourceGraphic" in2="BackgroundImageFix" result="shape"/>
<feGaussianBlur stdDeviation="6" result="effect1_foregroundBlur_2002_213"/>
</filter>
</defs>
</svg>
