<svg width="200" height="89" viewBox="0 0 200 89" fill="none" xmlns="http://www.w3.org/2000/svg">
<g opacity="0.3" filter="url(#filter0_f_2002_424)">
<path d="M27.206 60.8974L27.1991 60.9404L27.1596 60.9507C27.0703 61.0435 26.9139 61.1294 26.9019 61.2308C26.7971 62.2084 26.6785 63.186 26.6407 64.1654C26.584 65.6705 27.4001 66.5863 28.8984 66.7839C29.1218 66.7977 29.3468 66.8217 29.5702 66.8217C33.4808 66.8234 37.3931 66.8217 41.3036 66.8217H41.9153C41.7229 67.6327 41.5528 68.3612 41.381 69.088C41.2401 69.5777 41.1009 70.0673 40.9531 70.5845C40.8277 70.5845 40.716 70.5845 40.6061 70.5845C34.79 70.5845 28.9723 70.5845 23.1562 70.5811C22.8796 70.5811 22.5978 70.5364 22.3264 70.4797C21.7972 70.368 21.2731 70.234 20.7456 70.1086L20.7508 70.112C20.5962 69.9986 20.4415 69.8852 20.2869 69.7718L20.2972 69.7787C20.2199 69.7375 20.1443 69.6962 20.067 69.655L20.0704 69.6567C19.8436 69.4299 19.6151 69.2014 19.3883 68.9746L19.3917 68.978C19.2766 68.8251 19.1632 68.6739 19.0481 68.521L19.0515 68.5244C19.0103 68.3646 18.9639 68.2066 18.9278 68.0468C18.744 67.2049 18.4192 66.3561 18.4141 65.5073C18.4072 64.1602 18.5979 62.8098 18.7371 61.4627C18.8024 60.8287 18.9467 60.2016 19.055 59.571C19.0824 59.5212 19.1168 59.4748 19.1357 59.4215C20.0515 56.7326 21.8332 54.8615 24.4655 53.8031C25.0239 53.578 25.6132 53.4285 26.1871 53.2447C26.694 53.2258 27.2026 53.1897 27.7094 53.1897C67.2945 53.188 106.881 53.1897 146.466 53.1862C155.277 53.1862 164.09 53.1742 172.901 53.1673C172.914 53.1794 172.932 53.2017 172.94 53.2C172.973 53.1914 173.002 53.1742 173.033 53.1605C173.218 53.1175 173.406 53.0746 173.591 53.0333C173.76 53.0333 173.935 53.066 174.095 53.0333C176.627 52.4904 178.65 51.1674 180.138 49.0437C180.249 48.8839 180.299 48.6795 180.378 48.4973L180.371 48.5042C180.445 48.5351 180.586 48.5695 180.584 48.597C180.564 48.9613 180.559 49.3324 180.485 49.688C180.253 50.8066 179.998 51.9234 179.382 52.9131C179.345 52.9715 179.371 53.0711 179.37 53.1519L179.373 53.1484C179.108 53.5264 178.842 53.9044 178.577 54.2824L178.581 54.279C178.43 54.4336 178.278 54.5866 178.127 54.7412L178.134 54.7343C177.943 54.925 177.751 55.1158 177.56 55.3082L177.567 55.3013C177.413 55.4525 177.26 55.602 177.105 55.7532C176.954 55.8666 176.801 55.98 176.65 56.0951L176.653 56.0934C176.426 56.2446 176.198 56.3958 175.971 56.547C175.971 56.547 175.973 56.547 175.973 56.5453C175.1 56.8803 174.225 57.2137 173.352 57.5487C173.246 57.5882 173.141 57.6277 173.035 57.6673C172.655 57.669 172.277 57.6724 171.897 57.6741C171.859 57.6724 171.822 57.669 171.784 57.669C150.449 57.669 129.115 57.669 107.78 57.6741C107.6 57.6741 107.421 57.736 107.24 57.7686L107.249 57.7996C107.172 57.8013 107.094 57.8047 107.017 57.8064C106.811 57.7996 106.603 57.7841 106.397 57.7841C81.5468 57.7841 56.6968 57.7841 31.8468 57.7841C31.6217 57.7841 31.3966 57.803 31.1698 57.8133C30.1252 57.8236 29.218 58.1861 28.4396 58.8751C28.407 58.9301 28.3761 58.9851 28.3434 59.0401L28.3486 59.0332C28.2335 59.1483 28.1183 59.2634 28.0032 59.3786L28.0084 59.3717C27.694 59.8425 27.3795 60.3132 27.0703 60.7875C27.0668 60.7943 27.1544 60.8596 27.1991 60.8974H27.206Z" fill="#C94480"/>
<path d="M115.862 18.4156C117.317 18.498 118.78 18.5152 120.225 18.6784C121.869 18.864 123.508 19.1337 125.133 19.4533C127.833 19.986 130.534 20.5306 133.207 21.1784C135.48 21.7282 137.716 22.4344 139.97 23.0667C143.434 24.0409 146.728 25.4687 150.028 26.869C152.588 27.9549 155.112 29.1284 157.676 30.2074C159.648 31.039 161.629 31.8689 163.658 32.5458C165.916 33.3001 168.215 33.9479 170.529 34.5114C171.954 34.8585 173.433 35.0286 174.899 35.1506C176.43 35.276 177.974 35.2743 179.514 35.276C180.17 35.276 180.825 35.1472 181.529 35.1764C181.088 35.4478 180.65 35.7228 180.205 35.9874C179.521 36.3946 178.844 36.8121 178.144 37.1884C177.895 37.3224 177.588 37.4203 177.308 37.4186C175.504 37.4031 173.701 37.3567 171.897 37.3138C170.66 37.2846 169.423 37.2416 168.186 37.2073C166.665 37.166 165.145 37.1282 163.626 37.087C162.464 37.0543 161.303 37.0148 160.14 36.9822C158.581 36.9392 157.023 36.9031 155.466 36.8602C154.342 36.8293 153.217 36.7897 152.093 36.7571C150.556 36.7141 149.016 36.6763 147.477 36.6351C146.183 36.599 144.889 36.5612 143.595 36.5234C142.283 36.4856 140.97 36.4495 139.657 36.4117C138.363 36.3757 137.07 36.3361 135.778 36.3018C134.2 36.2588 132.623 36.2227 131.047 36.1798C129.884 36.1471 128.723 36.1076 127.56 36.075C126.133 36.0337 124.707 35.9977 123.281 35.9581C121.931 35.9203 120.58 35.8843 119.23 35.843C119.091 35.8396 118.951 35.8155 118.659 35.7846C118.848 35.6867 118.9 35.6368 118.953 35.6351C119.963 35.5939 120.975 35.5784 121.984 35.5166C123.621 35.4169 125.257 35.2829 126.895 35.1747C127.659 35.1231 128.426 35.0887 129.192 35.0595C130.297 35.0166 131.403 35.0063 132.506 34.9427C134.125 34.8482 135.74 34.7125 137.358 34.6111C137.865 34.5802 138.381 34.642 138.886 34.5991C140.396 34.4702 141.896 34.3001 143.217 33.4393C144.453 32.6335 145.063 30.2761 144.295 29.2847C143.956 28.8483 143.52 28.3827 143.025 28.1851C140.162 27.0408 137.302 25.8707 134.374 24.9103C131.862 24.0838 129.276 23.4601 126.694 22.8725C125.115 22.5134 123.479 22.4155 121.874 22.1663C118.817 21.6938 115.737 21.7918 112.668 21.8553C111.063 21.888 109.452 22.1303 107.869 22.412C105.766 22.7883 103.668 23.2264 101.601 23.7625C98.2303 24.6354 95.043 26.0116 91.9606 27.6095C88.2786 29.5184 84.8336 31.8019 81.6017 34.4032C81.1533 34.764 80.722 35.1489 80.2564 35.4891C80.076 35.6214 79.8286 35.7073 79.6052 35.7245C78.9008 35.7812 78.1912 35.7984 77.4833 35.8293C77.363 35.7966 77.241 35.7382 77.1207 35.7365C74.4919 35.7331 71.8631 35.7365 69.2343 35.7434C69.1123 35.7434 68.9903 35.8001 68.8666 35.831C68.2532 35.7984 67.6398 35.7331 67.0282 35.7399C65.7533 35.7554 64.4784 35.8035 63.2035 35.8465C61.1434 35.9169 59.0833 35.9753 57.0249 36.0784C55.482 36.1557 53.9408 36.2709 52.403 36.4169C50.7965 36.5698 49.1952 36.764 47.5939 36.9684C45.6523 37.2176 43.6988 37.4238 41.7778 37.788C39.4222 38.2347 37.0597 38.7158 34.7608 39.3876C32.2231 40.1299 29.7162 41.0147 27.2661 42.0096C25.3692 42.7793 23.5806 43.8119 21.7439 44.7277C21.5497 44.8239 21.3556 44.9184 21.079 44.9391C21.2405 44.7105 21.3814 44.4614 21.5686 44.2587C23.6579 42.0113 26.1081 40.2587 28.8623 38.9117C32.2763 37.2416 35.857 36.0681 39.57 35.2829C41.1696 34.9444 42.7641 34.5802 44.3723 34.2915C45.5544 34.0802 46.7537 33.9702 47.9461 33.819C49.4701 33.6266 50.9941 33.4238 52.5199 33.252C53.1676 33.1799 53.8257 33.1816 54.4769 33.1352C55.9992 33.0269 57.5215 32.9084 59.0438 32.7967C59.1933 32.7864 59.3462 32.795 59.4957 32.7933C62.4681 32.7469 65.4406 32.7005 68.413 32.6524C68.8683 32.6524 69.3219 32.6524 69.7772 32.6524C71.6913 32.8981 73.473 32.3053 75.2548 31.7624C79.2788 30.5356 83.0536 28.7384 86.7511 26.7573C89.1789 25.4566 91.6187 24.1697 94.0998 22.9756C97.4605 21.3571 100.967 20.1131 104.627 19.3588C106.213 19.0324 107.833 18.8485 109.447 18.675C110.782 18.5307 112.127 18.4963 113.469 18.4138C114.266 18.4138 115.063 18.4138 115.86 18.4138L115.862 18.4156Z" fill="white"/>
<path d="M155.036 66.6051C156.17 66.5759 157.341 65.5639 157.627 64.3165C157.988 62.7461 158.313 61.1671 158.667 59.595C158.72 59.3579 158.779 59.1225 159.157 59.1259C161.871 59.1448 164.586 59.1362 167.392 59.1362C166.882 61.1362 166.54 63.1499 165.844 65.0347C165.04 67.2065 163.404 68.7889 161.277 69.7408C160.352 70.1549 159.31 70.3078 158.32 70.581C155.064 70.5741 151.808 70.5638 148.552 70.5621C147.16 70.5621 145.769 70.5776 144.377 70.5861C142.093 70.3473 140.384 69.3336 139.588 67.069C139.088 65.6464 139.31 64.2375 139.645 62.8286C139.903 61.7461 140.178 60.6671 140.42 59.5812C140.485 59.2857 140.564 59.1293 140.911 59.1311C143.736 59.1431 146.561 59.1379 149.449 59.1379C149.095 60.6671 148.738 62.1619 148.406 63.6636C148.244 64.3973 148.062 65.1292 148.54 65.8508C148.856 66.3285 149.243 66.5983 149.813 66.6068C149.854 66.6326 149.894 66.6584 149.935 66.6824C151.597 66.6824 153.258 66.6824 154.92 66.6824L155.042 66.6051H155.036Z" fill="white"/>
<path d="M109.164 70.5812C106.598 70.3063 105.149 68.9524 104.671 66.492C104.491 65.5642 104.733 64.6209 104.974 63.6948C105.364 62.1931 105.675 60.6725 106.019 59.1588H114.74C114.379 60.7395 114.042 62.2928 113.664 63.8357C113.388 64.9645 113.828 65.8082 114.936 66.1621C115.192 66.1947 115.448 66.2549 115.704 66.2566C118.541 66.2669 121.377 66.2686 124.216 66.2721C123.877 67.6964 123.539 69.1191 123.2 70.5434C120.381 70.5486 117.561 70.5503 114.743 70.5572C112.883 70.5623 111.024 70.5727 109.164 70.5795V70.5812Z" fill="white"/>
<path d="M101.244 59.2567C100.656 60.4663 99.9242 61.566 98.7902 62.334C98.3659 62.6209 97.8934 62.8374 97.3796 63.1209C97.5824 63.7944 97.792 64.5229 98.0222 65.2463C98.5617 66.9421 99.1133 68.6328 99.6545 70.3287C99.6768 70.3974 99.6596 70.4781 99.6596 70.552C99.3212 70.5537 98.9844 70.5589 98.6459 70.5589C96.1133 70.5675 93.5807 70.5761 91.0481 70.5847C90.4571 68.7892 89.8523 66.9988 89.2801 65.1982C88.7166 63.425 88.1839 61.6416 87.641 59.8632C87.5929 59.7052 87.5671 59.5419 87.531 59.3804C87.684 59.3392 87.8369 59.2653 87.9898 59.2636C92.4072 59.2567 96.8247 59.2567 101.242 59.2567H101.244Z" fill="white"/>
<path d="M126.518 70.5311C126.788 69.1531 127.049 67.7734 127.328 66.3989C127.724 64.4281 128.133 62.4608 128.537 60.4918C128.625 60.0622 128.718 59.6327 128.817 59.1671H138.009C137.455 61.9316 136.906 64.691 136.345 67.447C136.133 68.483 135.889 69.5139 135.659 70.5466C132.613 70.5414 129.566 70.5363 126.518 70.5311Z" fill="white"/>
<path d="M73.0419 59.2602C72.8168 60.2911 72.602 61.322 72.3649 62.3494C71.8477 64.6054 71.3203 66.8597 70.7945 69.1122C70.6828 69.5916 70.5643 70.0692 70.4474 70.5486C67.5489 70.5451 64.6503 70.5417 61.7517 70.5383C62.0558 69.1654 62.3479 67.7875 62.6658 66.4181C63.1778 64.2102 63.707 62.0075 64.2293 59.8014C64.2723 59.6227 64.3273 59.4457 64.3771 59.2687C67.2654 59.2653 70.1519 59.2619 73.0402 59.2584L73.0419 59.2602Z" fill="white"/>
<path d="M55.1485 59.2634C54.6709 61.2651 54.1881 63.265 53.7173 65.2684C53.3496 66.832 53.0008 68.399 52.64 69.9625C52.5919 70.1721 52.5232 70.3766 52.4647 70.5828C52.2397 70.5759 52.0163 70.5604 51.7912 70.5604C49.2603 70.5553 46.7295 70.5518 44.1986 70.5467C44.3859 69.636 44.5525 68.7203 44.7639 67.8148C45.3944 65.119 46.0422 62.4283 46.6831 59.7359C46.7209 59.5761 46.7724 59.4198 46.8171 59.2617C49.5937 59.2617 52.3702 59.2617 55.1485 59.2617V59.2634Z" fill="white"/>
<path d="M84.3626 59.26C84.0533 60.6432 83.7509 62.028 83.4314 63.4094C82.9245 65.5949 82.4056 67.777 81.8936 69.9608C81.8472 70.155 81.8077 70.3509 81.7665 70.545C81.483 70.5502 81.2012 70.557 80.9177 70.5588C78.4469 70.5656 75.9745 70.5708 73.5037 70.5777L73.49 70.5708C73.49 70.4883 73.49 70.4058 73.4917 70.3251C73.8147 68.8956 74.1309 67.466 74.4608 66.0382C74.9711 63.8321 75.49 61.6277 76.0071 59.4232C76.0226 59.358 76.0638 59.2978 76.093 59.2343C78.849 59.2428 81.6067 59.2514 84.3626 59.26Z" fill="white"/>
<path d="M171.9 57.6725C171.517 57.7085 171.134 57.7773 170.749 57.7773C151.712 57.7824 132.676 57.7824 113.639 57.7807C111.506 57.7807 109.376 57.7704 107.244 57.767C107.424 57.7343 107.603 57.6725 107.783 57.6725C129.118 57.6673 150.452 57.6673 171.787 57.6673C171.825 57.6673 171.863 57.6707 171.9 57.6725Z" fill="#009CCC"/>
<path d="M172.902 53.1708C172.947 53.1691 172.99 53.1657 173.035 53.164C173.004 53.1777 172.974 53.1949 172.942 53.2035C172.932 53.2052 172.914 53.1829 172.902 53.1708Z" fill="#457488"/>
<path d="M57.3238 40.1712C62.1158 40.173 66.9078 40.1747 71.6997 40.1764C71.7753 40.173 71.8527 40.1695 71.9283 40.1661C74.2804 40.3328 76.2684 42.2863 76.2495 44.6591C76.2375 46.1076 75.7804 47.4426 75.5004 48.8257C75.301 49.8102 75.0674 50.7879 74.8492 51.7689C71.9523 51.7741 69.0538 51.7775 66.1569 51.7827C66.406 50.6401 66.6706 49.501 66.8992 48.3549C67.0538 47.5835 67.2084 46.8051 67.2703 46.0216C67.3339 45.221 66.6981 44.5767 65.87 44.5646C64.0625 44.5406 62.2549 44.5423 60.4474 44.5646C59.5454 44.5749 58.3392 45.6419 58.1141 46.568C57.6932 48.3034 57.2774 50.0422 56.8581 51.7775C54.109 51.7775 51.3582 51.781 48.6092 51.7827C48.7586 51.0284 48.8909 50.2707 49.0628 49.5199C49.3531 48.2553 49.5713 46.9615 49.9923 45.7399C50.9717 42.8963 53.0661 41.1815 55.8891 40.3001C56.1984 40.2039 56.5403 40.209 56.8667 40.1678L57.322 40.1712H57.3238Z" fill="white"/>
<path d="M101.364 40.1711C102.856 40.379 104.057 41.0766 104.857 42.3584C105.459 43.3206 105.713 44.3704 105.459 45.5181C105.024 47.4803 104.613 49.4476 104.189 51.4132C104.161 51.5369 104.108 51.6554 104.069 51.7774C101.328 51.7809 98.5893 51.7895 95.8488 51.7791C95.7148 51.7791 95.5808 51.6297 95.4467 51.5489C95.8161 49.9269 96.1684 48.2998 96.5584 46.683C96.8299 45.5525 96.1168 44.5645 94.9588 44.5559C93.3385 44.5439 91.7183 44.5491 90.0998 44.5542C88.9005 44.5576 87.7579 45.336 87.44 46.5078C86.9675 48.25 86.593 50.0163 86.1772 51.774C83.3954 51.774 80.6154 51.7723 77.8337 51.7706C78.1894 50.1881 78.5536 48.6091 78.8955 47.0249C79.1481 45.8566 79.5261 44.7518 80.2409 43.7724C81.5896 41.9237 83.3181 40.666 85.6084 40.2553C85.7287 40.233 85.8473 40.2003 85.9676 40.1729C86.081 40.1763 86.1943 40.178 86.3077 40.1814C87.2665 40.1729 88.2235 40.154 89.1823 40.1557C93.055 40.1574 96.9261 40.166 100.799 40.1729C100.988 40.1729 101.177 40.1729 101.368 40.1729L101.364 40.1711Z" fill="white"/>
<path d="M165.67 40.173C167.651 40.4771 169.15 41.441 169.962 43.3258C170.485 44.5372 170.404 45.788 170.138 47.0337C169.797 48.6196 169.421 50.1986 169.06 51.781C166.375 51.7844 163.689 51.7896 161.004 51.7793C160.851 51.7793 160.698 51.6281 160.545 51.5473C160.882 50.0319 161.227 48.5182 161.552 46.9993C161.801 45.831 161.342 44.8877 160.131 44.654C160.006 44.6214 159.88 44.5612 159.755 44.5595C158.208 44.5526 156.664 44.5526 155.117 44.5595C154.973 44.5595 154.829 44.6231 154.683 44.6574C153.535 44.8791 152.669 45.5578 152.346 46.6265C151.849 48.2759 151.552 49.9872 151.171 51.671C151.069 51.7088 150.968 51.781 150.867 51.781C148.131 51.7879 145.398 51.7896 142.662 51.7776C142.545 51.7776 142.43 51.6264 142.315 51.5473C142.843 49.4134 143.026 47.178 144.035 45.1832C145.331 42.6248 147.468 41.0733 150.196 40.3001C150.545 40.2005 150.923 40.2074 151.287 40.1644C151.298 40.1799 151.312 40.2074 151.318 40.2056C151.348 40.2005 151.375 40.185 151.404 40.1747C155.143 40.1678 158.884 40.1575 162.622 40.1541C163.524 40.1541 164.425 40.1713 165.327 40.1799C165.44 40.1764 165.553 40.1747 165.667 40.1713L165.67 40.173Z" fill="white"/>
<path d="M151.406 40.1764C151.377 40.1867 151.349 40.2022 151.32 40.2073C151.313 40.2073 151.299 40.1798 151.289 40.1661C151.329 40.1695 151.366 40.173 151.406 40.1764Z" fill="#D2D4D6"/>
<path d="M132.84 40.1781C135.819 40.1747 138.798 40.1712 141.778 40.1678C141.81 40.197 141.841 40.2279 141.874 40.2572C141.637 41.4564 141.405 42.6557 141.162 43.855C140.767 45.8086 140.367 47.7604 139.967 49.7123C139.824 50.4099 139.671 51.1057 139.523 51.8033C138.638 51.7982 137.754 51.7947 136.869 51.7896C134.704 51.7793 132.539 51.7689 130.374 51.7586C130.651 50.3669 130.926 48.9752 131.204 47.5852C131.597 45.6179 131.986 43.6488 132.388 41.6832C132.486 41.2039 132.63 40.7331 132.752 40.2589C132.781 40.2314 132.809 40.2056 132.838 40.1781H132.84Z" fill="white"/>
<path d="M119.118 40.2587C118.841 41.4992 118.566 42.7397 118.285 43.9803C117.695 46.5764 117.101 49.1709 116.508 51.7653C113.611 51.7722 110.714 51.7773 107.819 51.7842C108.048 50.676 108.257 49.5643 108.51 48.463C109.098 45.9029 109.708 43.348 110.309 40.7913C110.35 40.6143 110.395 40.4357 110.438 40.2587C110.47 40.2295 110.503 40.1985 110.534 40.1693C113.362 40.1693 116.192 40.1693 119.02 40.1693C119.053 40.1985 119.084 40.2295 119.116 40.2587H119.118Z" fill="white"/>
<path d="M110.536 40.1678C110.503 40.197 110.47 40.2279 110.44 40.2572C110.472 40.2279 110.505 40.197 110.536 40.1678Z" fill="#D2D4D6"/>
<path d="M33.2934 34.8789L35.6593 29.934C35.7676 29.709 35.9995 29.5715 36.2487 29.5852L67.5865 32.1299C67.5865 32.1299 47.1539 30.6677 34.0631 35.7191C33.546 35.9184 33.0528 35.3772 33.2917 34.8772L33.2934 34.8789Z" fill="#C94480"/>
</g>
<path d="M27.206 60.8974L27.1991 60.9404L27.1596 60.9507C27.0703 61.0435 26.9139 61.1294 26.9019 61.2308C26.7971 62.2084 26.6785 63.186 26.6407 64.1654C26.584 65.6705 27.4001 66.5863 28.8984 66.7839C29.1218 66.7977 29.3468 66.8217 29.5702 66.8217C33.4808 66.8234 37.3931 66.8217 41.3036 66.8217H41.9153C41.7229 67.6327 41.5528 68.3612 41.381 69.088C41.2401 69.5777 41.1009 70.0673 40.9531 70.5845C40.8277 70.5845 40.716 70.5845 40.6061 70.5845C34.79 70.5845 28.9723 70.5845 23.1562 70.5811C22.8796 70.5811 22.5978 70.5364 22.3264 70.4797C21.7972 70.368 21.2731 70.234 20.7456 70.1086L20.7508 70.112C20.5962 69.9986 20.4415 69.8852 20.2869 69.7718L20.2972 69.7787C20.2199 69.7375 20.1443 69.6962 20.067 69.655L20.0704 69.6567C19.8436 69.4299 19.6151 69.2014 19.3883 68.9746L19.3917 68.978C19.2766 68.8251 19.1632 68.6739 19.0481 68.521L19.0515 68.5244C19.0103 68.3646 18.9639 68.2066 18.9278 68.0468C18.744 67.2049 18.4192 66.3561 18.4141 65.5073C18.4072 64.1602 18.5979 62.8098 18.7371 61.4627C18.8024 60.8287 18.9467 60.2016 19.055 59.571C19.0824 59.5212 19.1168 59.4748 19.1357 59.4215C20.0515 56.7326 21.8332 54.8615 24.4655 53.8031C25.0239 53.578 25.6132 53.4285 26.1871 53.2447C26.694 53.2258 27.2026 53.1897 27.7094 53.1897C67.2945 53.188 106.881 53.1897 146.466 53.1862C155.277 53.1862 164.09 53.1742 172.901 53.1673C172.914 53.1794 172.932 53.2017 172.94 53.2C172.973 53.1914 173.002 53.1742 173.033 53.1605C173.218 53.1175 173.406 53.0746 173.591 53.0333C173.76 53.0333 173.935 53.066 174.095 53.0333C176.627 52.4904 178.65 51.1674 180.138 49.0437C180.249 48.8839 180.299 48.6795 180.378 48.4973L180.371 48.5042C180.445 48.5351 180.586 48.5695 180.584 48.597C180.564 48.9613 180.559 49.3324 180.485 49.688C180.253 50.8066 179.998 51.9234 179.382 52.9131C179.345 52.9715 179.371 53.0711 179.37 53.1519L179.373 53.1484C179.108 53.5264 178.842 53.9044 178.577 54.2824L178.581 54.279C178.43 54.4336 178.278 54.5866 178.127 54.7412L178.134 54.7343C177.943 54.925 177.751 55.1158 177.56 55.3082L177.567 55.3013C177.413 55.4525 177.26 55.602 177.105 55.7532C176.954 55.8666 176.801 55.98 176.65 56.0951L176.653 56.0934C176.426 56.2446 176.198 56.3958 175.971 56.547C175.971 56.547 175.973 56.547 175.973 56.5453C175.1 56.8803 174.225 57.2137 173.352 57.5487C173.246 57.5882 173.141 57.6277 173.035 57.6673C172.655 57.669 172.277 57.6724 171.897 57.6741C171.859 57.6724 171.822 57.669 171.784 57.669C150.449 57.669 129.115 57.669 107.78 57.6741C107.6 57.6741 107.421 57.736 107.24 57.7686L107.249 57.7996C107.172 57.8013 107.094 57.8047 107.017 57.8064C106.811 57.7996 106.603 57.7841 106.397 57.7841C81.5468 57.7841 56.6968 57.7841 31.8468 57.7841C31.6217 57.7841 31.3966 57.803 31.1698 57.8133C30.1252 57.8236 29.218 58.1861 28.4396 58.8751C28.407 58.9301 28.3761 58.9851 28.3434 59.0401L28.3486 59.0332C28.2335 59.1483 28.1183 59.2634 28.0032 59.3786L28.0084 59.3717C27.694 59.8425 27.3795 60.3132 27.0703 60.7875C27.0668 60.7943 27.1544 60.8596 27.1991 60.8974H27.206Z" fill="#C94480"/>
<path d="M115.862 18.4156C117.317 18.498 118.78 18.5152 120.225 18.6784C121.869 18.864 123.508 19.1337 125.133 19.4533C127.833 19.986 130.534 20.5306 133.207 21.1784C135.48 21.7282 137.716 22.4344 139.97 23.0667C143.434 24.0409 146.728 25.4687 150.028 26.869C152.588 27.9549 155.112 29.1284 157.676 30.2074C159.648 31.039 161.629 31.8689 163.658 32.5458C165.916 33.3001 168.215 33.9479 170.529 34.5114C171.954 34.8585 173.433 35.0286 174.899 35.1506C176.43 35.276 177.974 35.2743 179.514 35.276C180.17 35.276 180.825 35.1472 181.529 35.1764C181.088 35.4478 180.65 35.7228 180.205 35.9874C179.521 36.3946 178.844 36.8121 178.144 37.1884C177.895 37.3224 177.588 37.4203 177.308 37.4186C175.504 37.4031 173.701 37.3567 171.897 37.3138C170.66 37.2846 169.423 37.2416 168.186 37.2073C166.665 37.166 165.145 37.1282 163.626 37.087C162.464 37.0543 161.303 37.0148 160.14 36.9822C158.581 36.9392 157.023 36.9031 155.466 36.8602C154.342 36.8293 153.217 36.7897 152.093 36.7571C150.556 36.7141 149.016 36.6763 147.477 36.6351C146.183 36.599 144.889 36.5612 143.595 36.5234C142.283 36.4856 140.97 36.4495 139.657 36.4117C138.363 36.3757 137.07 36.3361 135.778 36.3018C134.2 36.2588 132.623 36.2227 131.047 36.1798C129.884 36.1471 128.723 36.1076 127.56 36.075C126.133 36.0337 124.707 35.9977 123.281 35.9581C121.931 35.9203 120.58 35.8843 119.23 35.843C119.091 35.8396 118.951 35.8155 118.659 35.7846C118.848 35.6867 118.9 35.6368 118.953 35.6351C119.963 35.5939 120.975 35.5784 121.984 35.5166C123.621 35.4169 125.257 35.2829 126.895 35.1747C127.659 35.1231 128.426 35.0887 129.192 35.0595C130.297 35.0166 131.403 35.0063 132.506 34.9427C134.125 34.8482 135.74 34.7125 137.358 34.6111C137.865 34.5802 138.381 34.642 138.886 34.5991C140.396 34.4702 141.896 34.3001 143.217 33.4393C144.453 32.6335 145.063 30.2761 144.295 29.2847C143.956 28.8483 143.52 28.3827 143.025 28.1851C140.162 27.0408 137.302 25.8707 134.374 24.9103C131.862 24.0838 129.276 23.4601 126.694 22.8725C125.115 22.5134 123.479 22.4155 121.874 22.1663C118.817 21.6938 115.737 21.7918 112.668 21.8553C111.063 21.888 109.452 22.1303 107.869 22.412C105.766 22.7883 103.668 23.2264 101.601 23.7625C98.2303 24.6354 95.043 26.0116 91.9606 27.6095C88.2786 29.5184 84.8336 31.8019 81.6017 34.4032C81.1533 34.764 80.722 35.1489 80.2564 35.4891C80.076 35.6214 79.8286 35.7073 79.6052 35.7245C78.9008 35.7812 78.1912 35.7984 77.4833 35.8293C77.363 35.7966 77.241 35.7382 77.1207 35.7365C74.4919 35.7331 71.8631 35.7365 69.2343 35.7434C69.1123 35.7434 68.9903 35.8001 68.8666 35.831C68.2532 35.7984 67.6398 35.7331 67.0282 35.7399C65.7533 35.7554 64.4784 35.8035 63.2035 35.8465C61.1434 35.9169 59.0833 35.9753 57.0249 36.0784C55.482 36.1557 53.9408 36.2709 52.403 36.4169C50.7965 36.5698 49.1952 36.764 47.5939 36.9684C45.6523 37.2176 43.6988 37.4238 41.7778 37.788C39.4222 38.2347 37.0597 38.7158 34.7608 39.3876C32.2231 40.1299 29.7162 41.0147 27.2661 42.0096C25.3692 42.7793 23.5806 43.8119 21.7439 44.7277C21.5497 44.8239 21.3556 44.9184 21.079 44.9391C21.2405 44.7105 21.3814 44.4614 21.5686 44.2587C23.6579 42.0113 26.1081 40.2587 28.8623 38.9117C32.2763 37.2416 35.857 36.0681 39.57 35.2829C41.1696 34.9444 42.7641 34.5802 44.3723 34.2915C45.5544 34.0802 46.7537 33.9702 47.9461 33.819C49.4701 33.6266 50.9941 33.4238 52.5199 33.252C53.1676 33.1799 53.8257 33.1816 54.4769 33.1352C55.9992 33.0269 57.5215 32.9084 59.0438 32.7967C59.1933 32.7864 59.3462 32.795 59.4957 32.7933C62.4681 32.7469 65.4406 32.7005 68.413 32.6524C68.8683 32.6524 69.3219 32.6524 69.7772 32.6524C71.6913 32.8981 73.473 32.3053 75.2548 31.7624C79.2788 30.5356 83.0536 28.7384 86.7511 26.7573C89.1789 25.4566 91.6187 24.1697 94.0998 22.9756C97.4605 21.3571 100.967 20.1131 104.627 19.3588C106.213 19.0324 107.833 18.8485 109.447 18.675C110.782 18.5307 112.127 18.4963 113.469 18.4138C114.266 18.4138 115.063 18.4138 115.86 18.4138L115.862 18.4156Z" fill="white"/>
<path d="M155.036 66.6051C156.17 66.5759 157.341 65.5639 157.627 64.3165C157.988 62.7461 158.313 61.1671 158.667 59.595C158.72 59.3579 158.779 59.1225 159.157 59.1259C161.871 59.1448 164.586 59.1362 167.392 59.1362C166.882 61.1362 166.54 63.1499 165.844 65.0347C165.04 67.2065 163.404 68.7889 161.277 69.7408C160.352 70.1549 159.31 70.3078 158.32 70.581C155.064 70.5741 151.808 70.5638 148.552 70.5621C147.16 70.5621 145.769 70.5776 144.377 70.5861C142.093 70.3473 140.384 69.3336 139.588 67.069C139.088 65.6464 139.31 64.2375 139.645 62.8286C139.903 61.7461 140.178 60.6671 140.42 59.5812C140.485 59.2857 140.564 59.1293 140.911 59.1311C143.736 59.1431 146.561 59.1379 149.449 59.1379C149.095 60.6671 148.738 62.1619 148.406 63.6636C148.244 64.3973 148.062 65.1292 148.54 65.8508C148.856 66.3285 149.243 66.5983 149.813 66.6068C149.854 66.6326 149.894 66.6584 149.935 66.6824C151.597 66.6824 153.258 66.6824 154.92 66.6824L155.042 66.6051H155.036Z" fill="white"/>
<path d="M109.164 70.5812C106.598 70.3063 105.149 68.9524 104.671 66.492C104.491 65.5642 104.733 64.6209 104.974 63.6948C105.364 62.1931 105.675 60.6725 106.019 59.1588H114.74C114.379 60.7395 114.042 62.2928 113.664 63.8357C113.388 64.9645 113.828 65.8082 114.936 66.1621C115.192 66.1947 115.448 66.2549 115.704 66.2566C118.541 66.2669 121.377 66.2686 124.216 66.2721C123.877 67.6964 123.539 69.1191 123.2 70.5434C120.381 70.5486 117.561 70.5503 114.743 70.5572C112.883 70.5623 111.024 70.5727 109.164 70.5795V70.5812Z" fill="white"/>
<path d="M101.244 59.2567C100.656 60.4663 99.9242 61.566 98.7902 62.334C98.3659 62.6209 97.8934 62.8374 97.3796 63.1209C97.5824 63.7944 97.792 64.5229 98.0222 65.2463C98.5617 66.9421 99.1133 68.6328 99.6545 70.3287C99.6768 70.3974 99.6596 70.4781 99.6596 70.552C99.3212 70.5537 98.9844 70.5589 98.6459 70.5589C96.1133 70.5675 93.5807 70.5761 91.0481 70.5847C90.4571 68.7892 89.8523 66.9988 89.2801 65.1982C88.7166 63.425 88.1839 61.6416 87.641 59.8632C87.5929 59.7052 87.5671 59.5419 87.531 59.3804C87.684 59.3392 87.8369 59.2653 87.9898 59.2636C92.4072 59.2567 96.8247 59.2567 101.242 59.2567H101.244Z" fill="white"/>
<path d="M126.518 70.5311C126.788 69.1531 127.049 67.7734 127.328 66.3989C127.724 64.4281 128.133 62.4608 128.537 60.4918C128.625 60.0622 128.718 59.6327 128.817 59.1671H138.009C137.455 61.9316 136.906 64.691 136.345 67.447C136.133 68.483 135.889 69.5139 135.659 70.5466C132.613 70.5414 129.566 70.5363 126.518 70.5311Z" fill="white"/>
<path d="M73.0419 59.2602C72.8168 60.2911 72.602 61.322 72.3649 62.3494C71.8477 64.6054 71.3203 66.8597 70.7945 69.1122C70.6828 69.5916 70.5643 70.0692 70.4474 70.5486C67.5489 70.5451 64.6503 70.5417 61.7517 70.5383C62.0558 69.1654 62.3479 67.7875 62.6658 66.4181C63.1778 64.2102 63.707 62.0075 64.2293 59.8014C64.2723 59.6227 64.3273 59.4457 64.3771 59.2687C67.2654 59.2653 70.1519 59.2619 73.0402 59.2584L73.0419 59.2602Z" fill="white"/>
<path d="M55.1485 59.2634C54.6709 61.2651 54.1881 63.265 53.7173 65.2684C53.3496 66.832 53.0008 68.399 52.64 69.9625C52.5919 70.1721 52.5232 70.3766 52.4647 70.5828C52.2397 70.5759 52.0163 70.5604 51.7912 70.5604C49.2603 70.5553 46.7295 70.5518 44.1986 70.5467C44.3859 69.636 44.5525 68.7203 44.7639 67.8148C45.3944 65.119 46.0422 62.4283 46.6831 59.7359C46.7209 59.5761 46.7724 59.4198 46.8171 59.2617C49.5937 59.2617 52.3702 59.2617 55.1485 59.2617V59.2634Z" fill="white"/>
<path d="M84.3626 59.26C84.0533 60.6432 83.7509 62.028 83.4314 63.4094C82.9245 65.5949 82.4056 67.777 81.8936 69.9608C81.8472 70.155 81.8077 70.3509 81.7665 70.545C81.483 70.5502 81.2012 70.557 80.9177 70.5588C78.4469 70.5656 75.9745 70.5708 73.5037 70.5777L73.49 70.5708C73.49 70.4883 73.49 70.4058 73.4917 70.3251C73.8147 68.8956 74.1309 67.466 74.4608 66.0382C74.9711 63.8321 75.49 61.6277 76.0071 59.4232C76.0226 59.358 76.0638 59.2978 76.093 59.2343C78.849 59.2428 81.6067 59.2514 84.3626 59.26Z" fill="white"/>
<path d="M171.9 57.6725C171.517 57.7085 171.134 57.7773 170.749 57.7773C151.712 57.7824 132.676 57.7824 113.639 57.7807C111.506 57.7807 109.376 57.7704 107.244 57.767C107.424 57.7343 107.603 57.6725 107.783 57.6725C129.118 57.6673 150.452 57.6673 171.787 57.6673C171.825 57.6673 171.863 57.6707 171.9 57.6725Z" fill="#009CCC"/>
<path d="M172.902 53.1708C172.947 53.1691 172.99 53.1657 173.035 53.164C173.004 53.1777 172.974 53.1949 172.942 53.2035C172.932 53.2052 172.914 53.1829 172.902 53.1708Z" fill="#457488"/>
<path d="M57.3238 40.1712C62.1158 40.173 66.9078 40.1747 71.6997 40.1764C71.7753 40.173 71.8527 40.1695 71.9283 40.1661C74.2804 40.3328 76.2684 42.2863 76.2495 44.6591C76.2375 46.1076 75.7804 47.4426 75.5004 48.8257C75.301 49.8102 75.0674 50.7879 74.8492 51.7689C71.9523 51.7741 69.0538 51.7775 66.1569 51.7827C66.406 50.6401 66.6706 49.501 66.8992 48.3549C67.0538 47.5835 67.2084 46.8051 67.2703 46.0216C67.3339 45.221 66.6981 44.5767 65.87 44.5646C64.0625 44.5406 62.2549 44.5423 60.4474 44.5646C59.5454 44.5749 58.3392 45.6419 58.1141 46.568C57.6932 48.3034 57.2774 50.0422 56.8581 51.7775C54.109 51.7775 51.3582 51.781 48.6092 51.7827C48.7586 51.0284 48.8909 50.2707 49.0628 49.5199C49.3531 48.2553 49.5713 46.9615 49.9923 45.7399C50.9717 42.8963 53.0661 41.1815 55.8891 40.3001C56.1984 40.2039 56.5403 40.209 56.8667 40.1678L57.322 40.1712H57.3238Z" fill="white"/>
<path d="M101.364 40.1711C102.856 40.379 104.057 41.0766 104.857 42.3584C105.459 43.3206 105.713 44.3704 105.459 45.5181C105.024 47.4803 104.613 49.4476 104.189 51.4132C104.161 51.5369 104.108 51.6554 104.069 51.7774C101.328 51.7809 98.5893 51.7895 95.8488 51.7791C95.7148 51.7791 95.5808 51.6297 95.4467 51.5489C95.8161 49.9269 96.1684 48.2998 96.5584 46.683C96.8299 45.5525 96.1168 44.5645 94.9588 44.5559C93.3385 44.5439 91.7183 44.5491 90.0998 44.5542C88.9005 44.5576 87.7579 45.336 87.44 46.5078C86.9675 48.25 86.593 50.0163 86.1772 51.774C83.3954 51.774 80.6154 51.7723 77.8337 51.7706C78.1894 50.1881 78.5536 48.6091 78.8955 47.0249C79.1481 45.8566 79.5261 44.7518 80.2409 43.7724C81.5896 41.9237 83.3181 40.666 85.6084 40.2553C85.7287 40.233 85.8473 40.2003 85.9676 40.1729C86.081 40.1763 86.1943 40.178 86.3077 40.1814C87.2665 40.1729 88.2235 40.154 89.1823 40.1557C93.055 40.1574 96.9261 40.166 100.799 40.1729C100.988 40.1729 101.177 40.1729 101.368 40.1729L101.364 40.1711Z" fill="white"/>
<path d="M165.67 40.173C167.651 40.4771 169.15 41.441 169.962 43.3258C170.485 44.5372 170.404 45.788 170.138 47.0337C169.797 48.6196 169.421 50.1986 169.06 51.781C166.375 51.7844 163.689 51.7896 161.004 51.7793C160.851 51.7793 160.698 51.6281 160.545 51.5473C160.882 50.0319 161.227 48.5182 161.552 46.9993C161.801 45.831 161.342 44.8877 160.131 44.654C160.006 44.6214 159.88 44.5612 159.755 44.5595C158.208 44.5526 156.664 44.5526 155.117 44.5595C154.973 44.5595 154.829 44.6231 154.683 44.6574C153.535 44.8791 152.669 45.5578 152.346 46.6265C151.849 48.2759 151.552 49.9872 151.171 51.671C151.069 51.7088 150.968 51.781 150.867 51.781C148.131 51.7879 145.398 51.7896 142.662 51.7776C142.545 51.7776 142.43 51.6264 142.315 51.5473C142.843 49.4134 143.026 47.178 144.035 45.1832C145.331 42.6248 147.468 41.0733 150.196 40.3001C150.545 40.2005 150.923 40.2074 151.287 40.1644C151.298 40.1799 151.312 40.2074 151.318 40.2056C151.348 40.2005 151.375 40.185 151.404 40.1747C155.143 40.1678 158.884 40.1575 162.622 40.1541C163.524 40.1541 164.425 40.1713 165.327 40.1799C165.44 40.1764 165.553 40.1747 165.667 40.1713L165.67 40.173Z" fill="white"/>
<path d="M151.406 40.1764C151.377 40.1867 151.349 40.2022 151.32 40.2073C151.313 40.2073 151.299 40.1798 151.289 40.1661C151.329 40.1695 151.366 40.173 151.406 40.1764Z" fill="#D2D4D6"/>
<path d="M132.84 40.1781C135.819 40.1747 138.798 40.1712 141.778 40.1678C141.81 40.197 141.841 40.2279 141.874 40.2572C141.637 41.4564 141.405 42.6557 141.162 43.855C140.767 45.8086 140.367 47.7604 139.967 49.7123C139.824 50.4099 139.671 51.1057 139.523 51.8033C138.638 51.7982 137.754 51.7947 136.869 51.7896C134.704 51.7793 132.539 51.7689 130.374 51.7586C130.651 50.3669 130.926 48.9752 131.204 47.5852C131.597 45.6179 131.986 43.6488 132.388 41.6832C132.486 41.2039 132.63 40.7331 132.752 40.2589C132.781 40.2314 132.809 40.2056 132.838 40.1781H132.84Z" fill="white"/>
<path d="M119.118 40.2587C118.841 41.4992 118.566 42.7397 118.285 43.9803C117.695 46.5764 117.101 49.1709 116.508 51.7653C113.611 51.7722 110.714 51.7773 107.819 51.7842C108.048 50.676 108.257 49.5643 108.51 48.463C109.098 45.9029 109.708 43.348 110.309 40.7913C110.35 40.6143 110.395 40.4357 110.438 40.2587C110.47 40.2295 110.503 40.1985 110.534 40.1693C113.362 40.1693 116.192 40.1693 119.02 40.1693C119.053 40.1985 119.084 40.2295 119.116 40.2587H119.118Z" fill="white"/>
<path d="M110.536 40.1678C110.503 40.197 110.47 40.2279 110.44 40.2572C110.472 40.2279 110.505 40.197 110.536 40.1678Z" fill="#D2D4D6"/>
<path d="M33.2936 34.8789L35.6596 29.934C35.7678 29.709 35.9998 29.5715 36.2489 29.5852L67.5867 32.1299C67.5867 32.1299 47.1542 30.6677 34.0634 35.7191C33.5462 35.9184 33.0531 35.3772 33.2919 34.8772L33.2936 34.8789Z" fill="#C94480"/>
<defs>
<filter id="filter0_f_2002_424" x="8.8029e-05" y="2.67914e-05" width="199.943" height="88.9999" filterUnits="userSpaceOnUse" color-interpolation-filters="sRGB">
<feFlood flood-opacity="0" result="BackgroundImageFix"/>
<feBlend mode="normal" in="SourceGraphic" in2="BackgroundImageFix" result="shape"/>
<feGaussianBlur stdDeviation="9.17647" result="effect1_foregroundBlur_2002_424"/>
</filter>
</defs>
</svg>
