<svg width="93" height="99" viewBox="0 0 93 99" fill="none" xmlns="http://www.w3.org/2000/svg">
<g filter="url(#filter0_d_2002_349)">
<path d="M64.9211 30.9146L30.4448 65.391C29.1526 66.6831 26.9795 66.5069 25.9223 64.9799C22.2808 59.6645 20.1371 53.3801 20.1371 46.9194V34.0275C20.1371 31.6194 21.9578 28.8883 24.1897 27.978L40.5469 21.2824C44.247 19.7553 48.3584 19.7553 52.0586 21.2824L63.952 26.1279C65.8902 26.9208 66.3894 29.4463 64.9211 30.9146Z" fill="white"/>
</g>
<g filter="url(#filter1_d_2002_349)">
<path d="M67.6817 34.9378C69.5905 33.3227 72.4978 34.7029 72.4978 37.1991V46.9194C72.4978 61.2796 62.0727 74.7295 47.8299 78.6647C46.8608 78.929 45.8036 78.929 44.8051 78.6647C40.6351 77.49 36.7587 75.5224 33.4403 72.9382C32.0307 71.8516 31.8838 69.796 33.1172 68.5332C39.5191 61.9844 58.255 42.8962 67.6817 34.9378Z" fill="white"/>
</g>
<defs>
<filter id="filter0_d_2002_349" x="0" y="0" width="85.9098" height="86.3912" filterUnits="userSpaceOnUse" color-interpolation-filters="sRGB">
<feFlood flood-opacity="0" result="BackgroundImageFix"/>
<feColorMatrix in="SourceAlpha" type="matrix" values="0 0 0 0 0 0 0 0 0 0 0 0 0 0 0 0 0 0 127 0" result="hardAlpha"/>
<feOffset/>
<feGaussianBlur stdDeviation="10"/>
<feComposite in2="hardAlpha" operator="out"/>
<feColorMatrix type="matrix" values="0 0 0 0 1 0 0 0 0 1 0 0 0 0 1 0 0 0 0.46 0"/>
<feBlend mode="normal" in2="BackgroundImageFix" result="effect1_dropShadow_2002_349"/>
<feBlend mode="normal" in="SourceGraphic" in2="effect1_dropShadow_2002_349" result="shape"/>
</filter>
<filter id="filter1_d_2002_349" x="12.1427" y="14.1051" width="80.4922" height="84.8949" filterUnits="userSpaceOnUse" color-interpolation-filters="sRGB">
<feFlood flood-opacity="0" result="BackgroundImageFix"/>
<feColorMatrix in="SourceAlpha" type="matrix" values="0 0 0 0 0 0 0 0 0 0 0 0 0 0 0 0 0 0 127 0" result="hardAlpha"/>
<feOffset/>
<feGaussianBlur stdDeviation="10"/>
<feComposite in2="hardAlpha" operator="out"/>
<feColorMatrix type="matrix" values="0 0 0 0 1 0 0 0 0 1 0 0 0 0 1 0 0 0 0.46 0"/>
<feBlend mode="normal" in2="BackgroundImageFix" result="effect1_dropShadow_2002_349"/>
<feBlend mode="normal" in="SourceGraphic" in2="effect1_dropShadow_2002_349" result="shape"/>
</filter>
</defs>
</svg>
