<svg width="89" height="100" viewBox="0 0 89 100" fill="none" xmlns="http://www.w3.org/2000/svg">
<g filter="url(#filter0_d_2002_346)">
<path d="M34.8892 29.2584L31.1487 23.0631C29.746 20.7837 26.9698 19.4979 24.3689 20.2577C20.453 21.4266 18.9334 25.8393 20.8914 29.083L24.7488 35.4245C25.1872 36.0966 26.0931 36.3304 26.7652 35.9213L34.3925 31.2748C35.0938 30.8364 35.3276 29.9305 34.8892 29.2584Z" fill="white"/>
</g>
<g filter="url(#filter1_d_2002_346)">
<path d="M66.8008 56.4651L58.5891 45.3603C55.7252 41.5029 50.7573 39.691 46.0816 40.9476C46.0816 40.9184 46.0523 40.9184 46.0523 40.8892L41.2013 32.9113C40.3246 31.5378 38.5128 31.0994 37.1393 31.9469L26.9989 38.113C25.5962 38.9312 25.1578 40.7723 26.0053 42.175L30.8271 50.1529C30.8271 50.1529 30.8271 50.1821 30.8563 50.1821C27.6125 53.7766 26.9112 59.0075 29.0737 63.3618L35.1521 75.7524C37.0224 79.5806 41.4351 81.0418 45.1757 79.113C45.4679 78.9669 45.5556 78.6163 45.3802 78.324L40.8214 70.7845C40.1785 69.7324 40.5 68.3882 41.552 67.716C42.604 67.1023 43.9483 67.4238 44.6204 68.4466L49.2084 75.9862C49.3838 76.2492 49.7345 76.3369 49.9975 76.1907L52.8029 74.4958C53.0659 74.3205 53.1536 73.9698 53.0075 73.7068L48.4194 66.1672C47.8057 65.1152 48.1272 63.7709 49.15 63.0988C50.2313 62.4851 51.5755 62.8065 52.2184 63.8294L56.8065 71.3689C56.9818 71.6319 57.3325 71.7196 57.5955 71.5735L60.4009 69.8785C60.6639 69.7032 60.7516 69.3525 60.6055 69.0895L56.0174 61.5499C55.4037 60.4979 55.7252 59.1537 56.748 58.4815C57.8293 57.8678 59.1735 58.1893 59.8164 59.2121L64.4337 66.7224C64.609 66.9855 64.9597 67.0731 65.2227 66.8978C68.6126 64.4723 69.3724 59.9135 66.8008 56.4651Z" fill="white"/>
</g>
<defs>
<filter id="filter0_d_2002_346" x="0" y="0" width="55.15" height="56.1624" filterUnits="userSpaceOnUse" color-interpolation-filters="sRGB">
<feFlood flood-opacity="0" result="BackgroundImageFix"/>
<feColorMatrix in="SourceAlpha" type="matrix" values="0 0 0 0 0 0 0 0 0 0 0 0 0 0 0 0 0 0 127 0" result="hardAlpha"/>
<feOffset/>
<feGaussianBlur stdDeviation="10"/>
<feComposite in2="hardAlpha" operator="out"/>
<feColorMatrix type="matrix" values="0 0 0 0 1 0 0 0 0 1 0 0 0 0 1 0 0 0 0.46 0"/>
<feBlend mode="normal" in2="BackgroundImageFix" result="effect1_dropShadow_2002_346"/>
<feBlend mode="normal" in="SourceGraphic" in2="effect1_dropShadow_2002_346" result="shape"/>
</filter>
<filter id="filter1_d_2002_346" x="5.53535" y="11.4758" width="82.836" height="88.5242" filterUnits="userSpaceOnUse" color-interpolation-filters="sRGB">
<feFlood flood-opacity="0" result="BackgroundImageFix"/>
<feColorMatrix in="SourceAlpha" type="matrix" values="0 0 0 0 0 0 0 0 0 0 0 0 0 0 0 0 0 0 127 0" result="hardAlpha"/>
<feOffset/>
<feGaussianBlur stdDeviation="10"/>
<feComposite in2="hardAlpha" operator="out"/>
<feColorMatrix type="matrix" values="0 0 0 0 1 0 0 0 0 1 0 0 0 0 1 0 0 0 0.46 0"/>
<feBlend mode="normal" in2="BackgroundImageFix" result="effect1_dropShadow_2002_346"/>
<feBlend mode="normal" in="SourceGraphic" in2="effect1_dropShadow_2002_346" result="shape"/>
</filter>
</defs>
</svg>
