<svg width="101" height="87" viewBox="0 0 101 87" fill="none" xmlns="http://www.w3.org/2000/svg">
<g filter="url(#filter0_d_2002_343)">
<path d="M61.5345 23.4623L65.6667 31.7266C66.2235 32.8696 67.7181 33.9539 68.9783 34.1883L76.4514 35.4192C81.2283 36.2105 82.3419 39.6686 78.9131 43.1267L73.0812 48.9587C72.1141 49.9258 71.5572 51.8307 71.8796 53.2081L73.5501 60.4174C74.8689 66.1028 71.821 68.3301 66.8096 65.3408L59.8055 61.1794C58.5453 60.4174 56.4352 60.4174 55.1751 61.1794L48.1709 65.3408C43.1595 68.3008 40.1117 66.1028 41.4305 60.4174L43.1009 53.2081C43.3647 51.8014 42.8078 49.8965 41.8407 48.9294L36.0088 43.0974C32.58 39.6686 33.6936 36.2105 38.4705 35.3899L45.9436 34.159C47.2038 33.9539 48.6984 32.8402 49.2552 31.6973L53.3874 23.4329C55.644 18.9784 59.2779 18.9784 61.5345 23.4623Z" fill="white"/>
</g>
<g filter="url(#filter1_d_2002_343)">
<path d="M39.8774 25.0447H22.2937C21.0921 25.0447 20.0957 24.0483 20.0957 22.8468C20.0957 21.6452 21.0921 20.6488 22.2937 20.6488H39.8774C41.0789 20.6488 42.0754 21.6452 42.0754 22.8468C42.0754 24.0483 41.0789 25.0447 39.8774 25.0447Z" fill="white"/>
</g>
<g filter="url(#filter2_d_2002_343)">
<path d="M31.0855 66.0735H22.2937C21.0921 66.0735 20.0957 65.0771 20.0957 63.8755C20.0957 62.674 21.0921 61.6776 22.2937 61.6776H31.0855C32.2871 61.6776 33.2835 62.674 33.2835 63.8755C33.2835 65.0771 32.2871 66.0735 31.0855 66.0735Z" fill="white"/>
</g>
<g filter="url(#filter3_d_2002_343)">
<path d="M25.2243 45.5591H22.2937C21.0921 45.5591 20.0957 44.5627 20.0957 43.3611C20.0957 42.1596 21.0921 41.1632 22.2937 41.1632H25.2243C26.4258 41.1632 27.4222 42.1596 27.4222 43.3611C27.4222 44.5627 26.4258 45.5591 25.2243 45.5591Z" fill="white"/>
</g>
<defs>
<filter id="filter0_d_2002_343" x="13.9219" y="0" width="87.0781" height="86.7659" filterUnits="userSpaceOnUse" color-interpolation-filters="sRGB">
<feFlood flood-opacity="0" result="BackgroundImageFix"/>
<feColorMatrix in="SourceAlpha" type="matrix" values="0 0 0 0 0 0 0 0 0 0 0 0 0 0 0 0 0 0 127 0" result="hardAlpha"/>
<feOffset/>
<feGaussianBlur stdDeviation="10"/>
<feComposite in2="hardAlpha" operator="out"/>
<feColorMatrix type="matrix" values="0 0 0 0 1 0 0 0 0 1 0 0 0 0 1 0 0 0 0.46 0"/>
<feBlend mode="normal" in2="BackgroundImageFix" result="effect1_dropShadow_2002_343"/>
<feBlend mode="normal" in="SourceGraphic" in2="effect1_dropShadow_2002_343" result="shape"/>
</filter>
<filter id="filter1_d_2002_343" x="0" y="0.55311" width="62.1711" height="44.5873" filterUnits="userSpaceOnUse" color-interpolation-filters="sRGB">
<feFlood flood-opacity="0" result="BackgroundImageFix"/>
<feColorMatrix in="SourceAlpha" type="matrix" values="0 0 0 0 0 0 0 0 0 0 0 0 0 0 0 0 0 0 127 0" result="hardAlpha"/>
<feOffset/>
<feGaussianBlur stdDeviation="10"/>
<feComposite in2="hardAlpha" operator="out"/>
<feColorMatrix type="matrix" values="0 0 0 0 1 0 0 0 0 1 0 0 0 0 1 0 0 0 0.46 0"/>
<feBlend mode="normal" in2="BackgroundImageFix" result="effect1_dropShadow_2002_343"/>
<feBlend mode="normal" in="SourceGraphic" in2="effect1_dropShadow_2002_343" result="shape"/>
</filter>
<filter id="filter2_d_2002_343" x="0" y="41.5819" width="53.3792" height="44.5873" filterUnits="userSpaceOnUse" color-interpolation-filters="sRGB">
<feFlood flood-opacity="0" result="BackgroundImageFix"/>
<feColorMatrix in="SourceAlpha" type="matrix" values="0 0 0 0 0 0 0 0 0 0 0 0 0 0 0 0 0 0 127 0" result="hardAlpha"/>
<feOffset/>
<feGaussianBlur stdDeviation="10"/>
<feComposite in2="hardAlpha" operator="out"/>
<feColorMatrix type="matrix" values="0 0 0 0 1 0 0 0 0 1 0 0 0 0 1 0 0 0 0.46 0"/>
<feBlend mode="normal" in2="BackgroundImageFix" result="effect1_dropShadow_2002_343"/>
<feBlend mode="normal" in="SourceGraphic" in2="effect1_dropShadow_2002_343" result="shape"/>
</filter>
<filter id="filter3_d_2002_343" x="0" y="21.0675" width="47.5179" height="44.5873" filterUnits="userSpaceOnUse" color-interpolation-filters="sRGB">
<feFlood flood-opacity="0" result="BackgroundImageFix"/>
<feColorMatrix in="SourceAlpha" type="matrix" values="0 0 0 0 0 0 0 0 0 0 0 0 0 0 0 0 0 0 127 0" result="hardAlpha"/>
<feOffset/>
<feGaussianBlur stdDeviation="10"/>
<feComposite in2="hardAlpha" operator="out"/>
<feColorMatrix type="matrix" values="0 0 0 0 1 0 0 0 0 1 0 0 0 0 1 0 0 0 0.46 0"/>
<feBlend mode="normal" in2="BackgroundImageFix" result="effect1_dropShadow_2002_343"/>
<feBlend mode="normal" in="SourceGraphic" in2="effect1_dropShadow_2002_343" result="shape"/>
</filter>
</defs>
</svg>
