<svg width="36" height="36" viewBox="0 0 36 36" fill="none" xmlns="http://www.w3.org/2000/svg">
<rect width="36" height="36" rx="8" fill="#DF0000"/>
<path d="M23 24.4301H19L14.55 27.39C13.89 27.83 13 27.3601 13 26.5601V24.4301C10 24.4301 8 22.4301 8 19.4301V13.43C8 10.43 10 8.42999 13 8.42999H23C26 8.42999 28 10.43 28 13.43V19.4301C28 22.4301 26 24.4301 23 24.4301Z" stroke="#030001" stroke-width="1.5" stroke-miterlimit="10" stroke-linecap="round" stroke-linejoin="round"/>
<path d="M18.0001 17.36V17.15C18.0001 16.47 18.4201 16.11 18.8401 15.82C19.2501 15.54 19.66 15.18 19.66 14.52C19.66 13.6 18.9201 12.86 18.0001 12.86C17.0801 12.86 16.3401 13.6 16.3401 14.52" stroke="black" stroke-width="1.5" stroke-linecap="round" stroke-linejoin="round"/>
<path d="M17.9955 19.75H18.0045" stroke="black" stroke-width="1.5" stroke-linecap="round" stroke-linejoin="round"/>
</svg>
